<svg width="334" height="334" viewBox="0 0 334 334" fill="none" xmlns="http://www.w3.org/2000/svg">
<path d="M167.765 180.311V207.923C167.472 209.489 167.059 211.195 166.523 213.039C165.709 216.094 164.844 218.639 163.927 220.676L146.823 203.569C152.219 200.31 156.648 196.288 160.109 191.502C162.594 188.094 164.213 184.363 164.965 180.311H167.765Z" fill="white"/>
<path d="M195.864 172.409C194.235 172.511 192.81 172.613 191.588 172.714V203.263H199.071C207.318 203.263 213.528 202.143 217.703 199.903C221.877 197.663 223.964 193.488 223.964 187.378C223.964 184.425 223.404 181.981 222.284 180.046C221.266 178.111 219.739 176.584 217.703 175.464C215.768 174.242 213.376 173.427 210.525 173.02C207.674 172.511 204.518 172.256 201.057 172.256C199.326 172.256 197.595 172.307 195.864 172.409Z" fill="white"/>
<path d="M201.057 92.3148C199.326 92.3148 197.595 92.3658 195.864 92.4676C194.235 92.5694 192.81 92.6712 191.588 92.7731V123.322H199.071C207.318 123.322 213.528 122.202 217.703 119.961C221.877 117.721 223.964 113.546 223.964 107.436C223.964 104.483 223.404 102.039 222.284 100.105C221.266 98.17 219.739 96.6426 217.703 95.5224C215.768 94.3005 213.376 93.4859 210.525 93.0786C207.674 92.5694 204.518 92.3148 201.057 92.3148Z" fill="white"/>
<path d="M133.702 104.704C134.72 102.056 135.483 99.9686 135.992 98.4412C136.603 99.9686 137.418 102.056 138.436 104.704C139.454 107.351 140.625 110.406 141.948 113.868C143.374 117.33 144.85 121.149 146.377 125.324C147.904 129.499 149.482 133.878 151.111 138.46H121.026C122.655 133.878 124.233 129.499 125.76 125.324C127.389 121.149 128.866 117.33 130.189 113.868C131.513 110.406 132.684 107.351 133.702 104.704Z" fill="white"/>
<path d="M116.433 228.618C116.433 230.146 116.738 231.724 117.349 233.353C117.96 234.983 118.927 236.51 120.251 237.936C121.676 239.26 123.458 240.38 125.596 241.296C127.734 242.111 130.33 242.518 133.384 242.518C137.66 242.518 141.376 241.958 144.532 240.838C147.79 239.718 150.488 238.241 152.626 236.408L128.192 211.817C126.766 212.53 125.341 213.395 123.916 214.413C122.592 215.432 121.37 216.654 120.251 218.079C119.131 219.403 118.214 220.93 117.502 222.661C116.789 224.393 116.433 226.378 116.433 228.618Z" fill="white"/>
<path d="M146.06 175.922C146.06 173.58 145.296 171.493 143.769 169.66C142.242 167.827 139.696 166.91 136.133 166.91C132.875 166.91 130.33 167.928 128.497 169.965C126.766 171.9 125.901 174.446 125.901 177.602C125.901 180.25 126.665 182.846 128.192 185.392C129.719 187.836 131.704 190.178 134.148 192.418C137.406 190.585 140.205 188.396 142.547 185.85C144.889 183.305 146.06 179.995 146.06 175.922Z" fill="white"/>
<path fill-rule="evenodd" clip-rule="evenodd" d="M167 334C259.232 334 334 259.232 334 167C334 74.7684 259.232 0 167 0C74.7684 0 0 74.7684 0 167C0 259.232 74.7684 334 167 334ZM199.529 72C215.31 72 227.426 74.8003 235.876 80.4009C244.326 85.8996 248.551 94.9624 248.551 107.589C248.551 120.318 244.275 129.533 235.723 135.236C227.171 140.836 214.954 143.637 199.071 143.637H191.588V152.129C194.454 152.004 197.102 151.941 199.529 151.941C215.31 151.941 227.426 154.742 235.876 160.342C244.326 165.841 248.551 174.904 248.551 187.531C248.551 200.259 244.275 209.475 235.723 215.177C227.171 220.778 214.954 223.578 199.071 223.578H191.588V251.369C193.215 253.9 194.685 256.449 195.998 259.014H167.765V252.086C166.842 250.907 165.919 249.856 164.996 248.933C160.924 252.192 156.19 254.941 150.794 257.181C145.398 259.32 139.34 260.389 132.621 260.389C125.494 260.389 119.538 259.523 114.753 257.792C109.968 255.959 106.099 253.668 103.146 250.919C100.296 248.068 98.2594 244.911 97.0377 241.449C95.8159 237.885 95.2051 234.372 95.2051 230.91C95.2051 227.04 95.765 223.527 96.885 220.37C98.0049 217.112 99.4811 214.21 101.314 211.664C103.248 209.016 105.437 206.725 107.881 204.791C110.426 202.754 113.073 200.972 115.822 199.445C113.378 196.491 111.189 193.335 109.255 189.974C107.583 186.982 106.633 183.761 106.407 180.311H83C86.9706 168.907 90.7376 158.367 94.301 148.694C97.8644 139.02 101.326 129.906 104.686 121.353C108.147 112.799 111.507 104.704 114.765 97.0665C118.125 89.3275 121.586 81.7922 125.15 74.4605H147.904C151.366 81.7922 154.777 89.3275 158.136 97.0665C161.346 104.362 164.555 112.075 167.765 120.207V74.7494C172.957 73.7311 178.455 73.0183 184.258 72.611C190.061 72.2037 195.152 72 199.529 72ZM246.571 257.487C249.524 255.043 251 251.53 251 246.948C251 242.365 249.524 238.903 246.571 236.561C243.721 234.117 240.463 232.895 236.797 232.895C233.132 232.895 229.823 234.117 226.871 236.561C224.02 238.903 222.595 242.365 222.595 246.948C222.595 251.53 224.02 255.043 226.871 257.487C229.823 259.829 233.132 261 236.797 261C240.463 261 243.721 259.829 246.571 257.487Z" fill="white"/>
</svg>
