<!--?xml version="1.0" standalone="no"?-->              <svg id="sw-js-blob-svg" viewBox="0 0 100 100" xmlns="http://www.w3.org/2000/svg">                    <defs>              <clipPath id="custom-shape">           <linearGradient id="sw-gradient" x1="0" x2="1" y1="1" y2="0">                            <stop id="stop1" stop-color="rgba(248, 117, 55, 1)" offset="0%"></stop>                            <stop id="stop2" stop-color="rgba(251, 168, 31, 1)" offset="100%"></stop>                        </linearGradient>         </clipPath>           </defs>                <path fill="url(#sw-gradient)" d="M22.6,-29.6C27.9,-22.5,29.7,-14,30.8,-5.8C31.8,2.5,32,10.5,28.9,17.4C25.8,24.2,19.3,29.8,11.4,33.8C3.5,37.8,-6,40.1,-12.5,36.7C-19,33.3,-22.5,24.1,-28,15.6C-33.5,7.1,-41.1,-0.7,-40.5,-7.6C-39.9,-14.6,-31.1,-20.5,-22.9,-27.1C-14.8,-33.6,-7.4,-40.7,0.6,-41.4C8.7,-42.2,17.3,-36.6,22.6,-29.6Z" width="100%" height="100%" transform="translate(50 50)" stroke-width="0" style="transition: 0.3s;"></path>              </svg>