<svg width="493" height="782" viewBox="0 0 493 782" fill="none" xmlns="http://www.w3.org/2000/svg">
<path d="M107.208 477.767C113.014 481.651 119.939 483.003 126.99 481.663C144.426 478.408 153.77 459.182 145.583 443.435C144.234 440.806 143.175 439.426 140.737 436.988C135.154 431.405 129.799 429.189 122.009 429.15C112.617 429.11 104.67 433.335 99.6442 441.056C94.1697 449.483 94.0188 460.67 99.3477 469.586C100.856 472.12 104.642 476.034 107.208 477.767Z" fill="url(#paint0_linear_66_302)"/>
<path d="M211.314 538.633C211.73 538.473 212.051 538.025 212.05 537.64C212.049 536.614 210.702 535.972 209.998 536.677C209.165 537.51 210.256 539.113 211.314 538.633Z" fill="url(#paint1_linear_66_302)"/>
<path d="M203.774 531.03C204.511 530.998 204.671 530.774 204.703 529.909C204.67 528.915 204.606 528.851 203.612 528.818C202.746 528.849 202.522 529.009 202.491 529.747C202.427 530.259 202.492 530.772 202.62 530.901C202.748 531.029 203.261 531.094 203.774 531.03Z" fill="url(#paint2_linear_66_302)"/>
<path d="M220.617 547.297C221.034 547.137 221.354 546.688 221.354 546.303C221.353 545.342 219.974 544.86 219.462 545.629C218.854 546.494 219.688 547.712 220.617 547.297Z" fill="url(#paint3_linear_66_302)"/>
<path d="M226.36 552.334C227.289 551.918 227.417 551.213 226.679 550.475C226.358 550.154 225.877 549.929 225.62 549.993C224.787 550.185 224.468 551.467 225.077 552.076C225.398 552.397 225.975 552.526 226.36 552.334Z" fill="url(#paint4_linear_66_302)"/>
<path d="M199.185 525.16C199.538 525 199.858 524.551 199.857 524.166C199.857 523.141 198.574 522.755 197.805 523.523C197.037 524.292 198.128 525.639 199.185 525.16Z" fill="url(#paint5_linear_66_302)"/>
<path d="M194.148 519.481C194.885 519.45 195.077 519.258 195.044 518.456C195.043 517.43 193.793 516.628 193.184 517.237C192.768 517.653 192.673 519.031 193.026 519.384C193.154 519.513 193.635 519.545 194.148 519.481Z" fill="url(#paint6_linear_66_302)"/>
<path d="M231.781 557.115C232.55 557.116 233.383 556.026 233.094 555.417C232.676 554.487 231.587 554.422 231.042 555.223C230.53 555.928 231.012 557.114 231.781 557.115Z" fill="url(#paint7_linear_66_302)"/>
<path d="M189.815 513.291C190.232 513.131 190.552 512.682 190.551 512.298C190.551 511.336 189.172 510.854 188.66 511.623C188.051 512.488 188.886 513.707 189.815 513.291Z" fill="url(#paint8_linear_66_302)"/>
<path d="M238.42 561.384C239.35 560.968 239.413 559.878 238.611 559.333C237.585 558.627 236.464 559.876 237.202 560.87C237.523 561.319 238.068 561.544 238.42 561.384Z" fill="url(#paint9_linear_66_302)"/>
<path d="M185.643 507.197C186.508 506.845 186.667 505.98 185.929 505.242C185.32 504.632 184.422 504.824 183.974 505.721C183.622 506.458 184.841 507.549 185.643 507.197Z" fill="url(#paint10_linear_66_302)"/>
<path d="M244.675 565.589C245.572 565.205 245.668 564.339 244.962 563.634C244.224 562.896 243.519 563.023 243.103 563.953C242.719 564.85 243.81 566.005 244.675 565.589Z" fill="url(#paint11_linear_66_302)"/>
<path d="M181.662 500.91C181.951 500.814 182.207 500.302 182.206 499.725C182.205 498.763 182.141 498.699 181.179 498.698C179.961 498.697 179.609 499.562 180.476 500.428C180.796 500.749 181.342 500.974 181.662 500.91Z" fill="url(#paint12_linear_66_302)"/>
<path d="M251.089 569.441C251.954 569.089 252.114 568.224 251.376 567.486C250.767 566.876 249.869 567.068 249.421 567.965C249.069 568.702 250.288 569.793 251.089 569.441Z" fill="url(#paint13_linear_66_302)"/>
<path d="M177.938 494.368C178.354 494.208 178.675 493.759 178.674 493.375C178.673 492.349 177.327 491.706 176.622 492.411C175.789 493.244 176.88 494.848 177.938 494.368Z" fill="url(#paint14_linear_66_302)"/>
<path d="M257.343 573.068C258.08 573.037 258.241 572.812 258.272 571.947C258.239 570.953 258.175 570.889 257.181 570.856C256.316 570.887 256.091 571.048 256.06 571.785C255.996 572.298 256.061 572.811 256.189 572.939C256.317 573.067 256.83 573.132 257.343 573.068Z" fill="url(#paint15_linear_66_302)"/>
<path d="M174.406 487.633C175.271 487.281 175.431 486.416 174.693 485.678C174.083 485.068 173.186 485.26 172.738 486.157C172.386 486.894 173.605 487.985 174.406 487.633Z" fill="url(#paint16_linear_66_302)"/>
<path d="M264.078 576.6C264.815 576.569 264.975 576.345 265.007 575.479C264.974 574.485 264.91 574.421 263.916 574.388C263.05 574.42 262.826 574.58 262.795 575.317C262.731 575.83 262.796 576.343 262.924 576.471C263.052 576.6 263.565 576.664 264.078 576.6Z" fill="url(#paint17_linear_66_302)"/>
<path d="M322.34 633.966C329.012 638.715 339.144 641.224 347.157 640.141C351.42 639.536 357.317 637.553 360.969 635.441C364.59 633.36 371.348 626.602 373.396 622.949C379.99 611.351 379.786 597.31 372.82 586.052C370.541 582.364 365.248 577.07 361.527 574.759C355.08 570.811 346.488 568.816 339.115 569.579C312.607 572.345 298.56 602.178 313.261 624.501C315.283 627.612 319.357 631.815 322.34 633.966Z" fill="url(#paint18_linear_66_302)"/>
<path d="M170.842 480.93C171.9 480.45 172.251 479.264 171.514 478.783C171.065 478.462 170.552 478.59 170.039 479.102C169.111 480.031 169.753 481.442 170.842 480.93Z" fill="url(#paint19_linear_66_302)"/>
<path d="M270.588 579.908C271.358 579.908 272.19 578.819 271.901 578.21C271.484 577.28 270.394 577.215 269.849 578.016C269.337 578.72 269.819 579.907 270.588 579.908Z" fill="url(#paint20_linear_66_302)"/>
<path d="M167.791 473.971C168.849 473.876 169.425 472.723 168.815 472.113C168.559 471.856 167.949 471.696 167.469 471.727C166.763 471.791 166.571 471.983 166.508 472.688C166.413 473.81 166.669 474.067 167.791 473.971Z" fill="url(#paint21_linear_66_302)"/>
<path d="M278.316 582.126C278.732 581.581 278.731 581.068 278.314 580.651C277.352 579.689 276.199 581.034 277.033 582.125C277.579 582.862 277.771 582.862 278.316 582.126Z" fill="url(#paint22_linear_66_302)"/>
<path d="M108.852 412.15C123.575 423.221 142.585 424.295 158.926 414.949C163.572 412.292 170.907 404.957 173.851 400.023C180.702 388.553 182.068 374.61 177.57 362.104C174.999 354.857 172.881 351.586 167.01 345.779C162.839 341.608 161.46 340.485 158.573 338.815C145.039 330.982 128.914 330.552 115.328 337.593C108.888 340.953 103.955 345.244 99.7286 351.203C87.5939 368.407 89.0237 391.361 103.27 406.824C105.067 408.813 107.569 411.187 108.852 412.15Z" fill="url(#paint23_linear_66_302)"/>
<path d="M165.253 466.885C165.99 466.854 166.15 466.629 166.181 465.764C166.148 464.77 166.084 464.706 165.09 464.673C164.225 464.704 164.001 464.864 163.969 465.602C163.906 466.115 163.97 466.628 164.098 466.756C164.227 466.884 164.74 466.949 165.253 466.885Z" fill="url(#paint24_linear_66_302)"/>
<path d="M284.761 585.113C285.723 585.114 285.851 584.985 285.818 584.12C285.818 583.03 284.663 582.324 283.99 582.996C283.734 583.253 283.542 583.829 283.607 584.278C283.671 584.919 283.928 585.112 284.761 585.113Z" fill="url(#paint25_linear_66_302)"/>
<path d="M162.81 459.895C163.548 459.927 164.092 459.062 163.803 458.389C163.417 457.491 161.943 457.362 161.559 458.195C161.271 458.804 162.041 459.894 162.81 459.895Z" fill="url(#paint26_linear_66_302)"/>
<path d="M291.752 587.619C292.008 587.619 292.489 587.331 292.809 587.01C293.225 586.594 293.161 586.209 292.551 585.6C291.878 584.926 291.621 584.926 291.141 585.598C290.5 586.431 290.886 587.586 291.752 587.619Z" fill="url(#paint27_linear_66_302)"/>
<path d="M160.208 452.616C161.17 452.873 161.938 451.463 161.2 450.725C160.783 450.308 160.27 450.308 159.789 450.66C158.957 451.3 159.15 452.391 160.208 452.616Z" fill="url(#paint28_linear_66_302)"/>
<path d="M299.351 589.452C300.088 589.421 300.248 589.197 300.279 588.331C300.246 587.337 300.182 587.273 299.188 587.24C298.323 587.272 298.099 587.432 298.067 588.169C298.004 588.682 298.068 589.195 298.197 589.323C298.325 589.452 298.838 589.516 299.351 589.452Z" fill="url(#paint29_linear_66_302)"/>
<path d="M158.952 445.338C159.881 444.922 160.008 444.089 159.238 443.319C158.757 442.837 158.404 442.869 157.988 443.478C157.252 444.471 157.926 445.786 158.952 445.338Z" fill="url(#paint30_linear_66_302)"/>
<path d="M306.886 591.286C307.751 590.934 307.91 590.069 307.172 589.331C306.563 588.722 305.665 588.913 305.217 589.81C304.865 590.547 306.084 591.638 306.886 591.286Z" fill="url(#paint31_linear_66_302)"/>
<path d="M156.99 438.123C157.246 438.124 157.727 437.836 158.047 437.515C158.464 437.099 158.399 436.714 157.789 436.105C157.116 435.431 156.859 435.431 156.379 436.103C155.739 436.936 156.124 438.091 156.99 438.123Z" fill="url(#paint32_linear_66_302)"/>
<path d="M156.407 430.558C157.272 430.206 157.431 429.341 156.693 428.603C156.084 427.993 155.186 428.185 154.738 429.082C154.386 429.819 155.605 430.91 156.407 430.558Z" fill="url(#paint33_linear_66_302)"/>
<path d="M155.439 423.184C156.336 422.8 156.431 421.935 155.725 421.229C154.988 420.491 154.282 420.619 153.866 421.548C153.483 422.445 154.573 423.6 155.439 423.184Z" fill="url(#paint34_linear_66_302)"/>
<path d="M267.673 505.631C302.255 536.563 347.5 552.725 394.108 550.777L398.66 550.588L400.94 555.174C404.761 562.903 410.955 572.172 414.613 575.574L416.088 576.985L414.548 574.996L413.04 572.976L414.836 574.836C415.863 575.863 416.858 576.729 417.114 576.73C417.691 576.73 418.718 577.757 418.59 578.27C418.526 578.462 418.077 578.269 417.66 577.788C416.986 577.114 416.601 577.05 415.961 577.562C414.775 578.427 415.482 579.774 416.988 579.486C418.046 579.263 418.431 579.52 420.837 581.926C426.484 587.573 436.651 594.345 444.925 597.942C456.79 603.145 468.076 605.527 480.962 605.538C490.355 605.578 504.457 603.346 504.809 601.775C504.937 601.391 505.033 601.359 505.129 601.776C505.322 602.609 513.847 599.539 520.287 596.307C525.927 593.491 531.341 590.001 536.403 585.902C540.183 582.892 547.069 576.134 547.965 574.66C548.445 573.795 548.413 573.699 547.227 573.474C545.015 572.991 539.5 571.319 539.66 571.159C539.756 571.063 541.327 571.417 543.155 571.964C550.658 574.15 562.776 575.763 572.265 575.771C591.21 575.883 610.343 570.674 626.491 561.071C635.43 555.725 639.307 552.683 647.57 544.419C655.449 536.54 658.299 532.984 663.325 524.686C671.136 511.934 676.444 496.296 678.13 481.455C681.821 448.12 669.644 414.996 645.262 392.087C638.396 385.67 633.681 382.108 626.24 377.678C609.434 367.726 590.774 362.774 570.675 362.917L563.109 362.975L562.463 356.371C560.393 335.212 554.22 313.473 545.261 295.738C544.073 293.397 543.046 291.216 543.013 290.928C542.981 290.575 542.082 288.843 541.023 286.951C539.963 285.123 539.225 283.616 539.385 283.584C539.545 283.616 540.219 284.61 540.893 285.861C542.563 288.94 542.627 288.94 544.133 287.755C545.382 286.762 545.382 286.762 544.069 288.011C543.3 288.716 542.788 289.421 542.916 289.549C543.301 289.934 544.902 288.204 548.104 283.912C569.814 254.759 571.319 215.075 551.931 184.156C550.487 181.879 547.117 177.356 544.453 174.116C539.929 168.567 539.255 167.893 533.834 163.497C527.194 158.074 521.741 154.543 515.359 151.492C509.331 148.602 502.019 145.967 501.86 146.64C501.796 146.897 501.636 146.865 501.475 146.576C501.154 145.806 493.523 144.005 487.368 143.294C481.629 142.552 473.935 142.482 468.166 143.054C462.172 143.658 453.871 145.414 453.519 146.151C453.359 146.503 453.199 146.535 453.134 146.279C452.973 145.67 444.096 148.707 438.937 151.171C437.111 152.035 435.477 152.643 435.348 152.515C435.188 152.354 434.16 150.045 433.004 147.352C429.535 139.271 425.073 131.67 419.328 123.939C414.964 118.101 404.184 107.321 398.57 103.117C381.345 90.3764 362.33 82.8913 342.742 81.1758C310.395 78.2955 280.4 89.4256 258.782 112.392C248.18 123.634 241.874 134.047 236.918 148.5C229.147 171.029 229.231 193.917 237.136 216.94C240.092 225.534 242.661 231.114 247.027 238.298C249.499 242.371 254.923 250.101 256.174 251.353C256.335 251.513 255.214 253.147 253.549 255.005C237.184 273.808 226.204 292.423 218.401 314.599C198.031 372.636 209.498 438.04 248.293 485.227C254.198 492.413 261.609 500.209 267.673 505.631ZM420.291 580.291C421.221 581.093 422.568 582.44 423.339 583.338C424.141 584.269 423.403 583.595 421.735 581.927C420.066 580.258 419.392 579.52 420.291 580.291ZM426.065 585.424C426.45 585.681 427.027 586.259 427.348 586.708C427.701 587.189 427.381 586.996 426.675 586.29C425.937 585.617 425.68 585.232 426.065 585.424ZM410.986 570.345C411.371 570.602 411.948 571.18 412.269 571.629C412.622 572.11 412.302 571.917 411.596 571.211C410.858 570.538 410.601 570.153 410.986 570.345ZM428.792 587.51C429.08 587.671 429.529 588.12 429.754 588.473C429.979 588.89 429.722 588.761 429.209 588.248C428.663 587.703 428.503 587.414 428.792 587.51ZM409.221 567.94C409.509 568.1 409.959 568.549 410.183 568.902C410.408 569.319 410.151 569.191 409.638 568.677C409.093 568.132 408.932 567.843 409.221 567.94ZM431.037 589.115C431.325 589.276 431.775 589.725 431.999 590.078C432.224 590.494 431.968 590.366 431.454 589.853C430.909 589.307 430.748 589.019 431.037 589.115ZM407.616 565.694C407.905 565.855 408.29 566.24 408.418 566.496C408.547 566.817 408.322 566.721 407.873 566.272C407.424 565.822 407.328 565.598 407.616 565.694ZM433.122 590.623C433.314 590.624 433.635 590.88 433.763 591.201C433.924 591.554 433.732 591.554 433.379 591.201C432.994 590.88 432.897 590.591 433.122 590.623ZM404.888 561.685C404.021 560.242 403.475 559.119 403.7 559.216C403.924 559.376 404.823 560.723 405.754 562.295C406.621 563.866 407.167 564.989 406.942 564.764C406.686 564.572 405.787 563.16 404.888 561.685ZM436.393 592.614C437.484 593.256 438.542 593.93 438.735 594.122C439.216 594.732 435.656 592.773 434.982 592.1C434.629 591.747 435.239 591.972 436.393 592.614ZM441.974 595.696C444.026 596.595 444.571 597.205 442.776 596.498C441.974 596.209 441.14 595.759 440.883 595.503C440.627 595.246 441.14 595.31 441.974 595.696ZM421.408 575.323C421.407 574.233 422.625 573.144 423.683 573.241C425.093 573.371 425.672 575.423 424.679 576.415C423.494 577.601 421.41 576.926 421.408 575.323ZM401.388 555.111C400.682 553.315 401.291 553.86 402.19 555.913C402.576 556.746 402.64 557.259 402.384 557.003C402.127 556.746 401.645 555.88 401.388 555.111ZM446.142 597.623C447.169 598.008 448.131 598.458 448.323 598.65C448.484 598.811 447.81 598.65 446.752 598.296C445.726 597.911 444.732 597.429 444.571 597.269C444.379 597.076 445.116 597.237 446.142 597.623ZM399.686 551.23C399.654 550.942 402.763 550.399 406.545 550.018C410.327 549.572 416.962 548.52 421.225 547.658C431.866 545.487 431.289 545.615 429.879 546.127C427.411 547.054 413.469 549.575 406.866 550.339L399.974 551.07L400.456 552.385C400.874 553.571 400.874 553.571 400.296 552.673C399.975 552.096 399.686 551.487 399.686 551.23ZM449.029 598.971C449.638 599.004 458.167 601.96 458.007 602.121C457.815 602.313 449.51 599.645 449.093 599.228C448.901 599.1 448.9 598.971 449.029 598.971ZM428.169 571.514C428.104 570.103 428.584 569.623 430.155 569.72C431.469 569.818 431.951 570.684 431.568 572.35C431.44 572.991 431.055 573.183 430.158 573.247C428.619 573.309 428.234 572.988 428.169 571.514ZM458.648 602.121C458.712 602.057 459.257 602.154 459.834 602.347C460.893 602.7 460.861 602.732 459.835 602.603C458.616 602.474 458.392 602.377 458.648 602.121ZM462.271 602.99C472.435 604.954 483.719 605.348 492.341 604.105C498.014 603.308 499.328 603.342 494.489 604.203C489.424 605.096 480.321 605.473 475.031 605.052C469.998 604.631 461.47 603.342 461.117 602.925C461.021 602.828 461.534 602.829 462.271 602.99ZM434.385 567.929C434.128 566.967 435.248 565.333 436.114 565.558C436.338 565.59 436.114 565.943 435.57 566.295C434.096 567.32 434.546 568.859 436.341 568.86C436.886 568.893 437.207 569.021 437.015 569.213C436.854 569.373 436.277 569.437 435.796 569.276C434.706 569.019 434.738 569.051 434.385 567.929ZM437.397 566.393C437.044 566.04 437.076 565.944 437.461 566.072C438.134 566.361 438.36 567.868 437.815 568.413C437.623 568.605 437.559 568.348 437.655 567.867C437.814 567.387 437.654 566.713 437.397 566.393ZM442.428 564.506C443.806 564.218 444.254 562.936 443.26 562.198C442.201 561.396 440.919 562.228 441.081 563.607C441.178 564.216 441.114 564.408 440.921 564.088C440.728 563.767 440.696 563.094 440.792 562.613C441.175 560.818 444.028 561.173 444.19 563C444.287 564.058 443.454 564.955 442.428 564.954C441.339 564.953 441.306 564.793 442.428 564.506ZM432.634 545.039C433.436 544.816 434.173 544.656 434.269 544.752C434.333 544.816 433.757 545.136 432.955 545.36C432.122 545.616 431.417 545.743 431.321 545.647C431.257 545.583 431.801 545.295 432.634 545.039ZM447.136 559.733C447.489 559.894 448.194 560.087 448.643 560.151C449.381 560.248 449.349 560.28 448.451 560.408C447.938 560.471 447.233 560.278 446.976 559.957C446.559 559.54 446.559 559.476 447.136 559.733ZM446.878 557.425C447.198 557.105 447.999 556.881 448.608 556.914C449.955 556.979 450.661 558.326 450.021 559.672C449.765 560.312 449.669 560.152 449.7 559.094C449.764 558.325 449.635 557.556 449.506 557.427C448.993 556.914 447.487 557.329 447.007 558.13C446.751 558.579 446.462 558.739 446.43 558.45C446.366 558.194 446.558 557.745 446.878 557.425ZM437.602 543.601C439.204 543.089 440.582 542.738 440.647 542.802C440.743 542.898 439.525 543.41 437.923 543.922C436.32 544.433 434.942 544.785 434.878 544.721C434.782 544.624 436 544.113 437.602 543.601ZM501.379 602.446C502.437 602.158 503.591 601.967 503.943 601.935C504.648 601.936 502.726 602.575 500.931 602.958C498.976 603.373 499.328 602.957 501.379 602.446ZM453.736 555.187C454.217 555.348 454.89 555.188 455.21 554.932C455.563 554.579 455.659 554.611 455.531 554.996C455.243 555.669 453.737 555.892 453.191 555.347C452.999 555.154 453.255 555.09 453.736 555.187ZM452.324 553.262C452.516 552.75 452.964 552.173 453.317 552.013C454.214 551.629 456.01 552.656 456.011 553.554C456.011 554.067 455.883 554.003 455.497 553.361C455.016 552.559 453.509 552.077 452.964 552.622C452.836 552.75 452.709 553.327 452.741 553.872C452.71 554.417 452.582 554.737 452.389 554.545C452.197 554.352 452.196 553.775 452.324 553.262ZM442.794 542.067C443.178 541.875 443.499 541.875 443.467 542.035C443.467 542.228 443.243 542.388 442.922 542.451C442.121 542.675 442.025 542.387 442.794 542.067ZM448.017 540.18C449.588 539.636 450.773 539.349 450.677 539.509C450.325 539.861 445.198 541.588 445.165 541.299C445.165 541.171 446.447 540.659 448.017 540.18ZM508.238 600.464C509.68 599.984 510.865 599.697 510.866 599.825C510.834 600.114 505.995 601.744 505.77 601.52C505.674 601.424 506.795 600.944 508.238 600.464ZM459.467 547.146C459.466 545.799 460.011 545.319 461.485 545.384C462.896 545.45 463.377 546.315 462.866 547.854C462.482 548.943 462.482 548.943 462.641 547.565C462.736 546.635 462.544 546.058 462.063 545.833C460.94 545.352 459.915 545.992 459.916 547.21C459.917 548.108 460.045 548.3 461.071 548.557C462.129 548.783 462.161 548.815 461.264 548.878C460.046 549.005 459.436 548.46 459.467 547.146ZM452.696 538.389C453.433 538.165 453.978 538.069 453.882 538.229C453.498 538.614 451.286 539.349 451.286 539.093C451.254 538.932 451.895 538.612 452.696 538.389ZM513.493 598.545C514.519 598.29 514.391 598.546 513.269 599.09C512.853 599.25 512.532 599.25 512.564 599.089C512.532 598.929 512.98 598.673 513.493 598.545ZM515.736 597.585C516.762 597.33 516.634 597.586 515.512 598.13C515.096 598.29 514.775 598.29 514.807 598.129C514.775 597.969 515.223 597.713 515.736 597.585ZM456.509 536.821C457.631 536.405 458.464 536.15 458.336 536.278C457.984 536.694 454.491 538.134 454.491 537.877C454.459 537.717 455.388 537.237 456.509 536.821ZM519.069 595.985C520.19 595.441 521.087 595.122 521.088 595.25C521.088 595.378 520.191 595.954 519.069 596.498C517.948 597.042 517.05 597.362 517.05 597.234C517.05 597.106 517.947 596.529 519.069 595.985ZM463.751 533.493C466.347 532.245 468.333 531.414 468.109 531.638C467.629 532.182 458.945 536.246 458.977 535.958C458.977 535.829 461.124 534.709 463.751 533.493ZM522.433 594.353C522.786 594.193 522.786 594.386 522.434 594.738C522.113 595.122 521.825 595.218 521.857 594.994C521.857 594.802 522.113 594.481 522.433 594.353ZM467.89 538.209C467.825 536.927 468.562 536.062 469.652 536.063C470.806 536.064 471.48 536.93 471.417 538.276C471.354 539.815 469.559 540.454 468.116 539.459C467.988 539.395 467.891 538.85 467.89 538.209ZM526.118 592.145C526.887 591.568 527.495 591.28 527.496 591.473C527.496 591.601 526.887 592.145 526.118 592.657C525.349 593.234 524.741 593.522 524.74 593.329C524.74 593.201 525.349 592.657 526.118 592.145ZM529.802 589.743C530.667 589.135 531.372 588.751 531.34 588.911C531.34 589.104 530.668 589.712 529.803 590.32C528.938 590.929 528.265 591.281 528.265 591.153C528.233 590.992 528.937 590.352 529.802 589.743ZM470.608 529.909C471.569 529.397 472.306 529.109 472.307 529.237C472.339 529.397 471.538 529.942 470.609 530.422C469.647 530.934 468.91 531.222 468.91 531.093C468.878 530.933 469.679 530.389 470.608 529.909ZM472.694 532.122C472.661 531.513 472.789 530.872 472.981 530.68C473.173 530.488 473.237 530.745 473.11 531.257C472.982 531.77 473.047 532.604 473.272 533.149C473.496 533.694 473.497 533.95 473.24 533.694C472.951 533.469 472.694 532.764 472.694 532.122ZM474.939 533.535C475.452 533.279 475.9 532.638 475.963 532.125C476.091 531.228 476.091 531.228 476.156 532.254C476.189 532.991 475.901 533.536 475.292 533.824C474.843 534.08 474.33 534.207 474.266 534.143C474.17 534.047 474.49 533.791 474.939 533.535ZM533.486 587.15C533.903 586.926 533.711 587.246 533.102 587.855C532.494 588.463 532.173 588.656 532.365 588.271C532.622 587.887 533.134 587.374 533.486 587.15ZM473.974 530.328C474.038 530.264 474.584 530.361 475.161 530.554C476.219 530.907 476.187 530.939 475.161 530.81C473.943 530.681 473.718 530.585 473.974 530.328ZM475.126 527.38C476.728 526.356 477.209 526.26 477.53 526.837C478.076 527.96 479.871 527.769 480.254 526.615C480.382 526.102 480.317 525.461 480.061 525.205C479.547 524.691 479.899 524.018 480.541 524.211C480.765 524.308 481.375 525.174 481.953 526.2C482.916 527.996 482.916 527.996 481.921 526.681L480.862 525.301L480.575 526.615C480.319 527.833 480.223 527.929 478.941 527.928C478.172 527.928 477.434 527.639 477.306 527.318C477.113 526.933 476.408 527.125 475.062 527.957C473.941 528.629 473.076 529.045 473.076 528.917C473.043 528.757 473.973 528.084 475.126 527.38ZM536.53 584.748C537.01 584.396 536.754 584.781 535.953 585.581C535.153 586.382 534.768 586.638 535.088 586.19C535.441 585.709 536.081 585.069 536.53 584.748ZM489.175 536.945C488.34 535.854 490.971 538.421 495.046 542.624C499.12 546.826 502.65 550.548 502.874 550.837C503.613 552.023 490.683 538.901 489.175 536.945ZM504.831 552.088C505.504 552.634 508.103 554.528 510.508 556.293C512.978 558.058 514.967 559.598 514.967 559.726C514.967 559.855 513.331 558.795 511.279 557.383C509.258 555.939 507.333 554.591 507.013 554.398C506.724 554.174 505.826 553.34 505.023 552.537C503.836 551.35 503.804 551.254 504.831 552.088ZM486.286 532.903C486.671 533.16 487.184 533.673 487.409 534.026C487.634 534.443 487.313 534.251 486.703 533.641C486.094 533.031 485.901 532.711 486.286 532.903ZM483.59 529.375C482.948 528.284 482.98 528.252 483.686 528.958C484.135 529.407 484.777 530.305 485.195 530.979C485.837 532.069 485.805 532.101 485.099 531.396C484.65 530.946 483.976 530.016 483.59 529.375ZM545.018 576.902C546.427 575.557 545.435 576.678 542.808 579.304C540.15 581.963 538.965 583.019 540.214 581.706C541.431 580.361 543.577 578.215 545.018 576.902ZM520.162 562.424C522.76 563.868 525.486 565.313 526.192 565.634C526.929 565.923 527.474 566.341 527.475 566.469C527.475 566.661 525.262 565.601 522.536 564.157C519.778 562.68 517.341 561.395 517.116 561.299C516.859 561.171 516.378 560.818 516.025 560.465C515.672 560.112 517.533 561.011 520.162 562.424ZM529.783 567.24C530.809 567.626 531.771 568.075 531.964 568.268C532.124 568.428 531.451 568.267 530.393 567.914C529.367 567.528 528.373 567.047 528.212 566.886C528.02 566.694 528.757 566.855 529.783 567.24ZM534.593 569.167C535.812 569.553 536.934 569.971 537.127 570.163C537.287 570.324 536.453 570.195 535.235 569.809C534.016 569.423 532.862 568.974 532.702 568.813C532.509 568.621 533.375 568.782 534.593 569.167ZM441.511 199.674C442.115 194.322 442.01 183.262 441.332 177.78C441.074 175.664 440.944 173.869 441.008 173.805C441.425 173.388 442.105 181.435 442.238 187.59C442.307 192.911 441.96 200.188 441.386 204.034C441.386 204.162 442.99 204.805 444.978 205.512C446.934 206.186 448.665 206.829 448.794 206.957C449.083 207.31 441.74 204.964 441.355 204.579C441.13 204.418 441.225 202.207 441.511 199.674ZM451.904 208.146C455.431 209.431 466.206 214.377 467.778 215.372C468.387 215.789 466.56 215.05 463.673 213.702C460.787 212.353 456.458 210.458 454.085 209.494C449.083 207.502 447.704 206.636 451.904 208.146ZM470.696 216.945C475.827 219.322 493.244 230.845 495.746 233.475C496.324 234.053 494.56 232.929 491.962 230.972C486.669 227.088 476.405 220.412 472.461 218.389C469.446 216.848 468.163 215.757 470.696 216.945ZM538.326 282.012C538.518 282.012 538.839 282.269 538.967 282.59C539.128 282.942 538.936 282.942 538.583 282.589C538.198 282.268 538.101 281.98 538.326 282.012ZM535.437 277.65C534.474 275.982 533.928 274.924 534.281 275.277C535.051 276.047 538.486 281.724 537.78 281.082C537.491 280.857 536.432 279.286 535.437 277.65ZM527.734 266.744C525.552 263.793 522.375 259.784 520.706 257.731L517.626 254.074L520.899 257.603C524.171 261.196 531.36 270.434 532.901 273.128L533.735 274.539L532.741 273.288C532.195 272.614 529.949 269.663 527.734 266.744ZM547.335 283.911C547.752 283.687 547.56 284.007 546.951 284.616C546.342 285.224 546.022 285.417 546.214 285.032C546.47 284.648 546.983 284.135 547.335 283.911ZM497.735 234.952C498.216 235.305 498.922 236.01 499.339 236.556C499.788 237.133 499.371 236.844 498.505 235.978C497.607 235.08 497.286 234.631 497.735 234.952ZM501.328 237.968C503.509 239.637 505.691 241.818 505.306 241.882C505.114 241.946 503.927 240.887 502.676 239.636C501.424 238.321 500.815 237.583 501.328 237.968ZM508.963 244.898C510.471 246.278 512.941 248.748 514.417 250.353C515.925 251.925 514.674 250.802 511.69 247.818C508.674 244.802 507.487 243.487 508.963 244.898ZM549.096 281.508C549.417 281.38 549.321 281.605 548.872 282.053C548.424 282.501 548.199 282.597 548.295 282.309C548.455 282.021 548.84 281.636 549.096 281.508ZM437.052 157.677C436.28 155.368 435.862 153.284 436.086 153.06C436.342 152.804 436.438 152.836 436.375 153.285C436.311 153.605 436.793 155.625 437.501 157.742C438.754 161.429 441.328 172.843 440.976 173.196C440.912 173.26 440.3 170.791 439.625 167.617C438.981 164.475 437.855 160.018 437.052 157.677ZM550.377 279.586C550.697 279.458 550.601 279.682 550.153 280.131C549.704 280.579 549.48 280.675 549.576 280.387C549.736 280.098 550.12 279.714 550.377 279.586ZM551.657 277.664C551.978 277.536 551.882 277.76 551.433 278.209C550.985 278.657 550.761 278.753 550.857 278.464C551.017 278.176 551.401 277.792 551.657 277.664ZM552.618 276.062C552.97 275.902 552.97 276.094 552.618 276.446C552.298 276.831 552.009 276.927 552.041 276.702C552.041 276.51 552.297 276.19 552.618 276.062ZM553.578 274.46C553.931 274.3 553.931 274.492 553.578 274.844C553.258 275.229 552.97 275.325 553.002 275.1C553.001 274.908 553.258 274.588 553.578 274.46ZM556.17 269.173C556.33 269.013 556.395 269.205 556.299 269.622C556.203 270.038 555.883 270.615 555.627 270.871C555.114 271.384 555.594 269.813 556.17 269.173ZM438.457 151.972C439.355 151.781 439.355 151.781 438.65 152.165C438.233 152.389 437.689 152.741 437.464 152.901C437.176 153.189 437.112 153.125 437.304 152.741C437.432 152.42 437.945 152.1 438.457 151.972ZM557.738 265.616C557.898 265.456 557.994 265.68 557.899 266.097C557.803 266.513 557.579 267.058 557.419 267.218C557.226 267.41 557.162 267.154 557.258 266.737C557.354 266.321 557.546 265.808 557.738 265.616ZM441.95 150.34C442.976 150.085 442.848 150.341 441.726 150.885C441.31 151.045 440.989 151.045 441.021 150.885C440.989 150.724 441.437 150.468 441.95 150.34ZM559.049 262.443C559.21 262.283 559.21 262.668 559.018 263.373C558.826 264.078 558.506 264.783 558.346 264.943C558.154 265.135 558.186 264.719 558.378 264.014C558.569 263.308 558.857 262.635 559.049 262.443ZM444.193 149.381C445.219 149.125 445.091 149.381 443.969 149.925C443.553 150.085 443.232 150.085 443.264 149.925C443.232 149.765 443.68 149.508 444.193 149.381ZM560.552 258.053C561.192 256.13 561.8 254.624 561.896 254.72C562.056 254.881 559.946 261.482 559.626 261.803C559.242 262.187 559.401 261.642 560.552 258.053ZM449.385 147.398C451.019 146.854 452.397 146.503 452.493 146.599C452.59 146.695 451.244 147.207 449.545 147.814C447.847 148.358 446.437 148.741 446.436 148.613C446.436 148.485 447.782 147.973 449.385 147.398ZM562.055 252.957C562.215 252.412 562.439 252.06 562.503 252.124C562.599 252.22 562.535 252.733 562.376 253.278C562.216 253.823 561.992 254.175 561.927 254.111C561.831 254.015 561.895 253.502 562.055 252.957ZM454.897 145.799C455.442 145.64 455.955 145.576 456.051 145.672C456.115 145.736 455.763 145.96 455.218 146.12C454.673 146.28 454.16 146.344 454.064 146.247C454 146.183 454.352 145.959 454.897 145.799ZM563.683 244.913C564.768 238.759 565.047 228.084 564.272 221.865C563.659 216.703 563.754 215.71 564.431 219.589C565.622 226.161 564.836 243.567 563.014 250.394C562.439 252.509 562.63 250.778 563.683 244.913ZM457.461 145.16C458.006 145.001 458.518 144.937 458.615 145.033C458.679 145.097 458.326 145.321 457.782 145.481C457.237 145.641 456.724 145.705 456.628 145.609C456.564 145.544 456.916 145.32 457.461 145.16ZM460.762 144.49C467.717 143.246 477.782 142.741 484.034 143.292C485.605 143.453 482.88 143.547 477.943 143.543C473.007 143.539 466.788 143.854 464.128 144.333C461.467 144.747 459.256 145.034 459.16 144.937C459.095 144.873 459.833 144.65 460.762 144.49ZM487.432 143.743C488.009 143.615 494.004 144.614 496.217 145.225C497.948 145.675 498.365 145.708 491.055 144.612C486.791 143.935 486.695 143.903 487.432 143.743ZM561.631 207.245C561.663 206.636 562.981 211.542 563.464 214.139C563.722 215.421 563.851 216.511 563.787 216.575C563.659 216.703 561.568 207.822 561.631 207.245ZM498.012 145.676C498.076 145.611 498.782 145.74 499.615 145.997C501.443 146.608 501.251 146.928 499.391 146.35C497.852 145.9 497.788 145.9 498.012 145.676ZM559.831 201.537C560.12 201.57 561.438 205.45 561.213 205.674C561.117 205.77 560.732 204.872 560.314 203.686C559.929 202.531 559.671 201.569 559.831 201.537ZM502.501 146.962C502.693 146.769 506.381 147.959 506.734 148.311C506.83 148.472 505.964 148.311 504.746 147.925C502.277 147.186 502.277 147.186 502.501 146.962ZM558.322 198.298C558.129 197.593 558.097 197.176 558.289 197.369C558.45 197.529 558.771 198.235 558.964 198.94C559.157 199.646 559.157 200.03 558.997 199.87C558.804 199.677 558.515 199.004 558.322 198.298ZM509.235 149.211C509.94 149.404 510.614 149.693 510.806 149.886C510.967 150.046 510.582 150.046 509.877 149.853C509.171 149.66 508.466 149.339 508.305 149.178C508.113 148.986 508.529 149.018 509.235 149.211ZM556.62 194.226C556.491 193.713 556.619 193.777 557.005 194.483C557.358 195.028 557.679 195.862 557.775 196.278C557.904 196.791 557.776 196.727 557.391 196.022C557.037 195.476 556.716 194.643 556.62 194.226ZM511.929 150.367C512.345 150.464 513.115 150.849 513.692 151.17C514.526 151.684 514.43 151.716 513.244 151.298C511.737 150.752 510.678 150.014 511.929 150.367ZM553.826 188.998C553.569 188.421 553.666 188.261 553.954 188.55C554.211 188.806 554.596 189.448 554.789 189.961C555.046 190.538 554.95 190.698 554.661 190.41C554.404 190.153 554.019 189.511 553.826 188.998ZM518.214 153.386C518.727 153.579 519.369 153.964 519.625 154.221C519.914 154.509 519.754 154.605 519.177 154.349C518.664 154.156 518.022 153.771 517.765 153.514C517.477 153.225 517.637 153.129 518.214 153.386ZM552.671 186.818C552.863 186.818 553.184 187.074 553.312 187.395C553.473 187.748 553.28 187.748 552.927 187.395C552.543 187.074 552.446 186.785 552.671 186.818ZM521.1 154.991C521.614 155.184 522.287 155.665 522.64 156.018C523.153 156.532 523.057 156.564 522.223 156.114C520.78 155.376 519.946 154.542 521.1 154.991ZM551.708 185.214C551.9 185.214 552.221 185.471 552.349 185.792C552.51 186.144 552.317 186.144 551.964 185.791C551.58 185.47 551.483 185.182 551.708 185.214ZM550.744 183.61C550.937 183.611 551.258 183.867 551.386 184.188C551.547 184.541 551.354 184.541 551.001 184.188C550.616 183.867 550.52 183.578 550.744 183.61ZM524.468 157.078C525.045 157.399 525.879 157.977 526.329 158.426C527.034 159.132 527.002 159.164 525.912 158.522C525.238 158.104 524.404 157.527 524.051 157.174C523.538 156.66 523.634 156.628 524.468 157.078ZM549.3 181.461C549.589 181.622 550.038 182.071 550.263 182.424C550.487 182.841 550.231 182.712 549.717 182.199C549.172 181.654 549.012 181.365 549.3 181.461ZM547.695 179.216C547.984 179.377 548.433 179.826 548.658 180.179C548.883 180.596 548.626 180.467 548.113 179.954C547.567 179.408 547.407 179.12 547.695 179.216ZM527.804 159.325C528.092 159.485 528.542 159.934 528.766 160.287C528.991 160.704 528.735 160.576 528.221 160.062C527.676 159.517 527.515 159.228 527.804 159.325ZM545.609 176.49C545.994 176.746 546.572 177.324 546.893 177.773C547.246 178.254 546.925 178.061 546.219 177.356C545.481 176.682 545.225 176.297 545.609 176.49ZM530.21 161.09C530.594 161.346 531.172 161.924 531.493 162.373C531.846 162.854 531.525 162.662 530.819 161.956C530.082 161.282 529.825 160.897 530.21 161.09ZM542.401 172.64C542.978 173.089 543.748 173.859 544.165 174.405C544.614 174.982 544.133 174.629 543.171 173.667C542.208 172.704 541.855 172.223 542.401 172.64ZM533.738 163.978C534.316 164.427 535.086 165.197 535.503 165.742C535.952 166.32 535.471 165.967 534.508 165.004C533.546 164.042 533.193 163.56 533.738 163.978Z" fill="url(#paint35_linear_66_302)"/>
<path d="M423.012 576.606C423.974 577.056 425.127 575.454 424.613 574.492C424.035 573.337 423.073 573.336 422.273 574.458C421.601 575.323 421.922 576.156 423.012 576.606Z" fill="url(#paint36_linear_66_302)"/>
<path d="M430.061 572.958C431.985 572.767 431.79 570.074 429.867 570.073C429.033 570.072 428.777 570.264 428.585 570.969C428.33 572.187 428.972 573.021 430.061 572.958Z" fill="url(#paint37_linear_66_302)"/>
<path d="M469.686 539.428C470.84 539.429 471.257 538.885 470.967 537.698C470.549 535.871 468.177 536.253 468.179 538.177C468.18 539.203 468.436 539.395 469.686 539.428Z" fill="url(#paint38_linear_66_302)"/>
<path d="M381.576 591.67C382.474 591.286 382.569 590.421 381.863 589.715C381.061 588.913 380.196 589.136 380.101 590.194C380.005 591.316 380.743 592.054 381.576 591.67Z" fill="url(#paint39_linear_66_302)"/>
<path d="M388.275 589.912C389.044 589.913 389.812 588.824 389.523 588.214C389.138 587.381 387.664 587.507 387.28 588.405C386.992 589.078 387.537 589.944 388.275 589.912Z" fill="url(#paint40_linear_66_302)"/>
<path d="M396.286 587.354C396.703 586.81 396.702 586.297 396.285 585.88C395.323 584.917 394.17 586.263 395.004 587.353C395.55 588.091 395.742 588.091 396.286 587.354Z" fill="url(#paint41_linear_66_302)"/>
<path d="M402.856 585.405C404.619 585.246 404.489 583.13 402.694 583.129C401.604 583.128 401.38 583.48 401.734 584.538C401.927 585.244 402.215 585.468 402.856 585.405Z" fill="url(#paint42_linear_66_302)"/>
<path d="M165.564 342.283C166.205 342.284 167.198 341.227 167.037 340.682C166.812 339.752 165.498 339.526 164.889 340.327C164.313 341.096 164.731 342.282 165.564 342.283Z" fill="url(#paint43_linear_66_302)"/>
<path d="M410.291 582.654C411.124 582.27 410.995 580.795 410.065 580.378C409.712 580.217 409.167 580.377 408.943 580.729C408.367 581.562 409.394 583.038 410.291 582.654Z" fill="url(#paint44_linear_66_302)"/>
<path d="M169.212 335.042C169.565 334.882 169.885 334.433 169.885 334.048C169.884 333.023 168.601 332.637 167.833 333.406C167.064 334.174 168.155 335.522 169.212 335.042Z" fill="url(#paint45_linear_66_302)"/>
<path d="M172.188 328.408C172.925 328.377 173.085 328.153 173.117 327.287C173.084 326.293 173.02 326.229 172.026 326.196C171.16 326.228 170.936 326.388 170.905 327.125C170.841 327.638 170.905 328.151 171.034 328.279C171.162 328.407 171.675 328.472 172.188 328.408Z" fill="url(#paint46_linear_66_302)"/>
<path d="M175.709 321.679C176.446 321.648 176.606 321.424 176.637 320.558C176.604 319.565 176.54 319.5 175.546 319.467C174.681 319.499 174.457 319.659 174.425 320.396C174.362 320.909 174.426 321.422 174.554 321.55C174.683 321.679 175.196 321.743 175.709 321.679Z" fill="url(#paint47_linear_66_302)"/>
<path d="M179.55 315.272C180.287 315.24 180.447 315.016 180.479 314.15C180.446 313.157 180.382 313.092 179.388 313.06C178.522 313.091 178.298 313.251 178.267 313.988C178.203 314.501 178.268 315.014 178.396 315.142C178.524 315.271 179.037 315.335 179.55 315.272Z" fill="url(#paint48_linear_66_302)"/>
<path d="M183.937 309.217C184.866 308.993 185.089 307.679 184.287 307.069C183.229 306.267 182.012 307.484 182.846 308.575C183.135 308.992 183.648 309.313 183.937 309.217Z" fill="url(#paint49_linear_66_302)"/>
<path d="M187.971 303.194C188.227 303.194 188.708 302.906 189.028 302.586C189.444 302.169 189.38 301.784 188.77 301.175C188.096 300.501 187.84 300.501 187.36 301.174C186.719 302.007 187.105 303.161 187.971 303.194Z" fill="url(#paint50_linear_66_302)"/>
<path d="M192.838 297.171C193.8 297.172 193.928 297.044 193.895 296.178C193.894 295.088 192.739 294.382 192.067 295.055C191.811 295.311 191.619 295.888 191.683 296.337C191.748 296.978 192.004 297.17 192.838 297.171Z" fill="url(#paint51_linear_66_302)"/>
<path d="M201.646 288.235C202.575 287.819 202.638 286.729 201.836 286.184C200.81 285.477 199.689 286.727 200.427 287.721C200.748 288.17 201.293 288.395 201.646 288.235Z" fill="url(#paint52_linear_66_302)"/>
<path d="M208.147 281.477C209.109 281.734 209.877 280.324 209.14 279.586C208.722 279.169 208.21 279.169 207.729 279.521C206.896 280.161 207.089 281.251 208.147 281.477Z" fill="url(#paint53_linear_66_302)"/>
<path d="M214.458 276.706C215.388 276.29 215.451 275.2 214.649 274.654C213.623 273.948 212.502 275.197 213.24 276.192C213.561 276.641 214.106 276.866 214.458 276.706Z" fill="url(#paint54_linear_66_302)"/>
<path d="M220.225 272.03C220.962 271.999 221.122 271.774 221.153 270.909C221.12 269.915 221.056 269.851 220.063 269.818C219.197 269.849 218.973 270.009 218.941 270.747C218.878 271.26 218.942 271.773 219.071 271.901C219.199 272.029 219.712 272.094 220.225 272.03Z" fill="url(#paint55_linear_66_302)"/>
<path d="M226.536 267.9C227.466 267.677 227.689 266.363 226.887 265.753C225.828 264.951 224.611 266.168 225.446 267.258C225.734 267.675 226.248 267.996 226.536 267.9Z" fill="url(#paint56_linear_66_302)"/>
<path d="M233.328 263.418C234.033 262.714 234.033 262.457 233.327 261.944C232.814 261.559 232.301 261.558 231.885 261.975C231.468 262.391 231.469 262.904 231.854 263.417C232.367 264.123 232.624 264.123 233.328 263.418Z" fill="url(#paint57_linear_66_302)"/>
<path d="M239.608 260.09C240.474 259.738 240.633 258.872 239.895 258.135C239.286 257.525 238.388 257.717 237.94 258.614C237.588 259.351 238.807 260.442 239.608 260.09Z" fill="url(#paint58_linear_66_302)"/>
<path d="M245.632 256.825C246.594 257.082 247.362 255.673 246.624 254.935C246.207 254.518 245.694 254.517 245.214 254.869C244.381 255.51 244.574 256.6 245.632 256.825Z" fill="url(#paint59_linear_66_302)"/>
<path d="M253.035 253.722C253.964 253.306 254.091 252.472 253.321 251.702C252.84 251.221 252.487 251.253 252.071 251.862C251.335 252.855 252.009 254.17 253.035 253.722Z" fill="url(#paint60_linear_66_302)"/>
<defs>
<linearGradient id="paint0_linear_66_302" x1="140.637" y1="436.888" x2="103.21" y2="474.315" gradientUnits="userSpaceOnUse">
<stop stop-color="#006DAD"/>
<stop offset="0.5" stop-color="#00B8F1"/>
<stop offset="1" stop-color="#00E6DC"/>
</linearGradient>
<linearGradient id="paint1_linear_66_302" x1="211.637" y1="536.741" x2="210.069" y2="538.308" gradientUnits="userSpaceOnUse">
<stop stop-color="#006DAD"/>
<stop offset="0.5" stop-color="#00B8F1"/>
<stop offset="1" stop-color="#00E6DC"/>
</linearGradient>
<linearGradient id="paint2_linear_66_302" x1="204.518" y1="529.003" x2="202.62" y2="530.901" gradientUnits="userSpaceOnUse">
<stop stop-color="#006DAD"/>
<stop offset="0.5" stop-color="#00B8F1"/>
<stop offset="1" stop-color="#00E6DC"/>
</linearGradient>
<linearGradient id="paint3_linear_66_302" x1="221.005" y1="545.552" x2="219.525" y2="547.032" gradientUnits="userSpaceOnUse">
<stop stop-color="#006DAD"/>
<stop offset="0.5" stop-color="#00B8F1"/>
<stop offset="1" stop-color="#00E6DC"/>
</linearGradient>
<linearGradient id="paint4_linear_66_302" x1="226.673" y1="550.47" x2="225.072" y2="552.071" gradientUnits="userSpaceOnUse">
<stop stop-color="#006DAD"/>
<stop offset="0.5" stop-color="#00B8F1"/>
<stop offset="1" stop-color="#00E6DC"/>
</linearGradient>
<linearGradient id="paint5_linear_66_302" x1="199.505" y1="523.376" x2="197.937" y2="524.944" gradientUnits="userSpaceOnUse">
<stop stop-color="#006DAD"/>
<stop offset="0.5" stop-color="#00B8F1"/>
<stop offset="1" stop-color="#00E6DC"/>
</linearGradient>
<linearGradient id="paint6_linear_66_302" x1="194.719" y1="517.563" x2="192.962" y2="519.32" gradientUnits="userSpaceOnUse">
<stop stop-color="#006DAD"/>
<stop offset="0.5" stop-color="#00B8F1"/>
<stop offset="1" stop-color="#00E6DC"/>
</linearGradient>
<linearGradient id="paint7_linear_66_302" x1="232.801" y1="554.99" x2="231.068" y2="556.722" gradientUnits="userSpaceOnUse">
<stop stop-color="#006DAD"/>
<stop offset="0.5" stop-color="#00B8F1"/>
<stop offset="1" stop-color="#00E6DC"/>
</linearGradient>
<linearGradient id="paint8_linear_66_302" x1="190.203" y1="511.546" x2="188.723" y2="513.026" gradientUnits="userSpaceOnUse">
<stop stop-color="#006DAD"/>
<stop offset="0.5" stop-color="#00B8F1"/>
<stop offset="1" stop-color="#00E6DC"/>
</linearGradient>
<linearGradient id="paint9_linear_66_302" x1="238.818" y1="559.504" x2="237.313" y2="561.01" gradientUnits="userSpaceOnUse">
<stop stop-color="#006DAD"/>
<stop offset="0.5" stop-color="#00B8F1"/>
<stop offset="1" stop-color="#00E6DC"/>
</linearGradient>
<linearGradient id="paint10_linear_66_302" x1="185.985" y1="505.297" x2="184.394" y2="506.889" gradientUnits="userSpaceOnUse">
<stop stop-color="#006DAD"/>
<stop offset="0.5" stop-color="#00B8F1"/>
<stop offset="1" stop-color="#00E6DC"/>
</linearGradient>
<linearGradient id="paint11_linear_66_302" x1="244.988" y1="563.66" x2="243.402" y2="565.245" gradientUnits="userSpaceOnUse">
<stop stop-color="#006DAD"/>
<stop offset="0.5" stop-color="#00B8F1"/>
<stop offset="1" stop-color="#00E6DC"/>
</linearGradient>
<linearGradient id="paint12_linear_66_302" x1="182.062" y1="498.86" x2="180.485" y2="500.438" gradientUnits="userSpaceOnUse">
<stop stop-color="#006DAD"/>
<stop offset="0.5" stop-color="#00B8F1"/>
<stop offset="1" stop-color="#00E6DC"/>
</linearGradient>
<linearGradient id="paint13_linear_66_302" x1="251.432" y1="567.541" x2="249.84" y2="569.133" gradientUnits="userSpaceOnUse">
<stop stop-color="#006DAD"/>
<stop offset="0.5" stop-color="#00B8F1"/>
<stop offset="1" stop-color="#00E6DC"/>
</linearGradient>
<linearGradient id="paint14_linear_66_302" x1="178.261" y1="492.475" x2="176.694" y2="494.042" gradientUnits="userSpaceOnUse">
<stop stop-color="#006DAD"/>
<stop offset="0.5" stop-color="#00B8F1"/>
<stop offset="1" stop-color="#00E6DC"/>
</linearGradient>
<linearGradient id="paint15_linear_66_302" x1="258.087" y1="571.041" x2="256.189" y2="572.939" gradientUnits="userSpaceOnUse">
<stop stop-color="#006DAD"/>
<stop offset="0.5" stop-color="#00B8F1"/>
<stop offset="1" stop-color="#00E6DC"/>
</linearGradient>
<linearGradient id="paint16_linear_66_302" x1="174.749" y1="485.733" x2="173.157" y2="487.325" gradientUnits="userSpaceOnUse">
<stop stop-color="#006DAD"/>
<stop offset="0.5" stop-color="#00B8F1"/>
<stop offset="1" stop-color="#00E6DC"/>
</linearGradient>
<linearGradient id="paint17_linear_66_302" x1="264.822" y1="574.573" x2="262.924" y2="576.471" gradientUnits="userSpaceOnUse">
<stop stop-color="#006DAD"/>
<stop offset="0.5" stop-color="#00B8F1"/>
<stop offset="1" stop-color="#00E6DC"/>
</linearGradient>
<linearGradient id="paint18_linear_66_302" x1="367.663" y1="579.838" x2="317.667" y2="629.833" gradientUnits="userSpaceOnUse">
<stop stop-color="#006DAD"/>
<stop offset="0.5" stop-color="#00B8F1"/>
<stop offset="1" stop-color="#00E6DC"/>
</linearGradient>
<linearGradient id="paint19_linear_66_302" x1="171.655" y1="478.896" x2="169.797" y2="480.754" gradientUnits="userSpaceOnUse">
<stop stop-color="#006DAD"/>
<stop offset="0.5" stop-color="#00B8F1"/>
<stop offset="1" stop-color="#00E6DC"/>
</linearGradient>
<linearGradient id="paint20_linear_66_302" x1="271.608" y1="577.782" x2="269.875" y2="579.515" gradientUnits="userSpaceOnUse">
<stop stop-color="#006DAD"/>
<stop offset="0.5" stop-color="#00B8F1"/>
<stop offset="1" stop-color="#00E6DC"/>
</linearGradient>
<linearGradient id="paint21_linear_66_302" x1="168.591" y1="471.889" x2="166.693" y2="473.787" gradientUnits="userSpaceOnUse">
<stop stop-color="#006DAD"/>
<stop offset="0.5" stop-color="#00B8F1"/>
<stop offset="1" stop-color="#00E6DC"/>
</linearGradient>
<linearGradient id="paint22_linear_66_302" x1="278.361" y1="580.698" x2="276.952" y2="582.107" gradientUnits="userSpaceOnUse">
<stop stop-color="#006DAD"/>
<stop offset="0.5" stop-color="#00B8F1"/>
<stop offset="1" stop-color="#00E6DC"/>
</linearGradient>
<linearGradient id="paint23_linear_66_302" x1="166.955" y1="345.721" x2="104.516" y2="408.16" gradientUnits="userSpaceOnUse">
<stop stop-color="#006DAD"/>
<stop offset="0.5" stop-color="#00B8F1"/>
<stop offset="1" stop-color="#00E6DC"/>
</linearGradient>
<linearGradient id="paint24_linear_66_302" x1="165.996" y1="464.858" x2="164.098" y2="466.756" gradientUnits="userSpaceOnUse">
<stop stop-color="#006DAD"/>
<stop offset="0.5" stop-color="#00B8F1"/>
<stop offset="1" stop-color="#00E6DC"/>
</linearGradient>
<linearGradient id="paint25_linear_66_302" x1="285.552" y1="583.243" x2="283.873" y2="584.923" gradientUnits="userSpaceOnUse">
<stop stop-color="#006DAD"/>
<stop offset="0.5" stop-color="#00B8F1"/>
<stop offset="1" stop-color="#00E6DC"/>
</linearGradient>
<linearGradient id="paint26_linear_66_302" x1="163.466" y1="457.94" x2="161.944" y2="459.462" gradientUnits="userSpaceOnUse">
<stop stop-color="#006DAD"/>
<stop offset="0.5" stop-color="#00B8F1"/>
<stop offset="1" stop-color="#00E6DC"/>
</linearGradient>
<linearGradient id="paint27_linear_66_302" x1="292.601" y1="585.65" x2="291.021" y2="587.23" gradientUnits="userSpaceOnUse">
<stop stop-color="#006DAD"/>
<stop offset="0.5" stop-color="#00B8F1"/>
<stop offset="1" stop-color="#00E6DC"/>
</linearGradient>
<linearGradient id="paint28_linear_66_302" x1="161.211" y1="450.736" x2="159.61" y2="452.337" gradientUnits="userSpaceOnUse">
<stop stop-color="#006DAD"/>
<stop offset="0.5" stop-color="#00B8F1"/>
<stop offset="1" stop-color="#00E6DC"/>
</linearGradient>
<linearGradient id="paint29_linear_66_302" x1="300.094" y1="587.426" x2="298.197" y2="589.323" gradientUnits="userSpaceOnUse">
<stop stop-color="#006DAD"/>
<stop offset="0.5" stop-color="#00B8F1"/>
<stop offset="1" stop-color="#00E6DC"/>
</linearGradient>
<linearGradient id="paint30_linear_66_302" x1="159.427" y1="443.507" x2="157.864" y2="445.07" gradientUnits="userSpaceOnUse">
<stop stop-color="#006DAD"/>
<stop offset="0.5" stop-color="#00B8F1"/>
<stop offset="1" stop-color="#00E6DC"/>
</linearGradient>
<linearGradient id="paint31_linear_66_302" x1="307.228" y1="589.387" x2="305.637" y2="590.978" gradientUnits="userSpaceOnUse">
<stop stop-color="#006DAD"/>
<stop offset="0.5" stop-color="#00B8F1"/>
<stop offset="1" stop-color="#00E6DC"/>
</linearGradient>
<linearGradient id="paint32_linear_66_302" x1="157.839" y1="436.155" x2="156.259" y2="437.735" gradientUnits="userSpaceOnUse">
<stop stop-color="#006DAD"/>
<stop offset="0.5" stop-color="#00B8F1"/>
<stop offset="1" stop-color="#00E6DC"/>
</linearGradient>
<linearGradient id="paint33_linear_66_302" x1="156.749" y1="428.659" x2="155.158" y2="430.25" gradientUnits="userSpaceOnUse">
<stop stop-color="#006DAD"/>
<stop offset="0.5" stop-color="#00B8F1"/>
<stop offset="1" stop-color="#00E6DC"/>
</linearGradient>
<linearGradient id="paint34_linear_66_302" x1="155.751" y1="421.255" x2="154.166" y2="422.841" gradientUnits="userSpaceOnUse">
<stop stop-color="#006DAD"/>
<stop offset="0.5" stop-color="#00B8F1"/>
<stop offset="1" stop-color="#00E6DC"/>
</linearGradient>
<linearGradient id="paint35_linear_66_302" x1="757.98" y1="434.009" x2="175.715" y2="121.429" gradientUnits="userSpaceOnUse">
<stop stop-color="#006DAD"/>
<stop offset="0.5" stop-color="#00B8F1"/>
<stop offset="1" stop-color="#00E6DC"/>
</linearGradient>
<linearGradient id="paint36_linear_66_302" x1="424.43" y1="574.142" x2="422.354" y2="576.218" gradientUnits="userSpaceOnUse">
<stop stop-color="#006DAD"/>
<stop offset="0.5" stop-color="#00B8F1"/>
<stop offset="1" stop-color="#00E6DC"/>
</linearGradient>
<linearGradient id="paint37_linear_66_302" x1="430.936" y1="570.454" x2="428.873" y2="572.516" gradientUnits="userSpaceOnUse">
<stop stop-color="#006DAD"/>
<stop offset="0.5" stop-color="#00B8F1"/>
<stop offset="1" stop-color="#00E6DC"/>
</linearGradient>
<linearGradient id="paint38_linear_66_302" x1="470.695" y1="537.039" x2="468.509" y2="539.224" gradientUnits="userSpaceOnUse">
<stop stop-color="#006DAD"/>
<stop offset="0.5" stop-color="#00B8F1"/>
<stop offset="1" stop-color="#00E6DC"/>
</linearGradient>
<linearGradient id="paint39_linear_66_302" x1="381.886" y1="589.738" x2="380.309" y2="591.315" gradientUnits="userSpaceOnUse">
<stop stop-color="#006DAD"/>
<stop offset="0.5" stop-color="#00B8F1"/>
<stop offset="1" stop-color="#00E6DC"/>
</linearGradient>
<linearGradient id="paint40_linear_66_302" x1="389.241" y1="587.855" x2="387.515" y2="589.582" gradientUnits="userSpaceOnUse">
<stop stop-color="#006DAD"/>
<stop offset="0.5" stop-color="#00B8F1"/>
<stop offset="1" stop-color="#00E6DC"/>
</linearGradient>
<linearGradient id="paint41_linear_66_302" x1="396.332" y1="585.927" x2="394.923" y2="587.336" gradientUnits="userSpaceOnUse">
<stop stop-color="#006DAD"/>
<stop offset="0.5" stop-color="#00B8F1"/>
<stop offset="1" stop-color="#00E6DC"/>
</linearGradient>
<linearGradient id="paint42_linear_66_302" x1="403.611" y1="583.343" x2="401.906" y2="585.047" gradientUnits="userSpaceOnUse">
<stop stop-color="#006DAD"/>
<stop offset="0.5" stop-color="#00B8F1"/>
<stop offset="1" stop-color="#00E6DC"/>
</linearGradient>
<linearGradient id="paint43_linear_66_302" x1="166.661" y1="340.085" x2="164.841" y2="341.905" gradientUnits="userSpaceOnUse">
<stop stop-color="#006DAD"/>
<stop offset="0.5" stop-color="#00B8F1"/>
<stop offset="1" stop-color="#00E6DC"/>
</linearGradient>
<linearGradient id="paint44_linear_66_302" x1="410.567" y1="580.768" x2="409.108" y2="582.227" gradientUnits="userSpaceOnUse">
<stop stop-color="#006DAD"/>
<stop offset="0.5" stop-color="#00B8F1"/>
<stop offset="1" stop-color="#00E6DC"/>
</linearGradient>
<linearGradient id="paint45_linear_66_302" x1="169.533" y1="333.258" x2="167.964" y2="334.826" gradientUnits="userSpaceOnUse">
<stop stop-color="#006DAD"/>
<stop offset="0.5" stop-color="#00B8F1"/>
<stop offset="1" stop-color="#00E6DC"/>
</linearGradient>
<linearGradient id="paint46_linear_66_302" x1="172.932" y1="326.381" x2="171.034" y2="328.279" gradientUnits="userSpaceOnUse">
<stop stop-color="#006DAD"/>
<stop offset="0.5" stop-color="#00B8F1"/>
<stop offset="1" stop-color="#00E6DC"/>
</linearGradient>
<linearGradient id="paint47_linear_66_302" x1="176.452" y1="319.653" x2="174.554" y2="321.55" gradientUnits="userSpaceOnUse">
<stop stop-color="#006DAD"/>
<stop offset="0.5" stop-color="#00B8F1"/>
<stop offset="1" stop-color="#00E6DC"/>
</linearGradient>
<linearGradient id="paint48_linear_66_302" x1="180.294" y1="313.245" x2="178.396" y2="315.142" gradientUnits="userSpaceOnUse">
<stop stop-color="#006DAD"/>
<stop offset="0.5" stop-color="#00B8F1"/>
<stop offset="1" stop-color="#00E6DC"/>
</linearGradient>
<linearGradient id="paint49_linear_66_302" x1="184.453" y1="307.219" x2="182.952" y2="308.72" gradientUnits="userSpaceOnUse">
<stop stop-color="#006DAD"/>
<stop offset="0.5" stop-color="#00B8F1"/>
<stop offset="1" stop-color="#00E6DC"/>
</linearGradient>
<linearGradient id="paint50_linear_66_302" x1="188.82" y1="301.225" x2="187.24" y2="302.805" gradientUnits="userSpaceOnUse">
<stop stop-color="#006DAD"/>
<stop offset="0.5" stop-color="#00B8F1"/>
<stop offset="1" stop-color="#00E6DC"/>
</linearGradient>
<linearGradient id="paint51_linear_66_302" x1="193.629" y1="295.301" x2="191.949" y2="296.981" gradientUnits="userSpaceOnUse">
<stop stop-color="#006DAD"/>
<stop offset="0.5" stop-color="#00B8F1"/>
<stop offset="1" stop-color="#00E6DC"/>
</linearGradient>
<linearGradient id="paint52_linear_66_302" x1="202.044" y1="286.355" x2="200.539" y2="287.861" gradientUnits="userSpaceOnUse">
<stop stop-color="#006DAD"/>
<stop offset="0.5" stop-color="#00B8F1"/>
<stop offset="1" stop-color="#00E6DC"/>
</linearGradient>
<linearGradient id="paint53_linear_66_302" x1="209.151" y1="279.597" x2="207.55" y2="281.198" gradientUnits="userSpaceOnUse">
<stop stop-color="#006DAD"/>
<stop offset="0.5" stop-color="#00B8F1"/>
<stop offset="1" stop-color="#00E6DC"/>
</linearGradient>
<linearGradient id="paint54_linear_66_302" x1="214.857" y1="274.826" x2="213.351" y2="276.331" gradientUnits="userSpaceOnUse">
<stop stop-color="#006DAD"/>
<stop offset="0.5" stop-color="#00B8F1"/>
<stop offset="1" stop-color="#00E6DC"/>
</linearGradient>
<linearGradient id="paint55_linear_66_302" x1="220.968" y1="270.003" x2="219.071" y2="271.901" gradientUnits="userSpaceOnUse">
<stop stop-color="#006DAD"/>
<stop offset="0.5" stop-color="#00B8F1"/>
<stop offset="1" stop-color="#00E6DC"/>
</linearGradient>
<linearGradient id="paint56_linear_66_302" x1="227.053" y1="265.902" x2="225.551" y2="267.403" gradientUnits="userSpaceOnUse">
<stop stop-color="#006DAD"/>
<stop offset="0.5" stop-color="#00B8F1"/>
<stop offset="1" stop-color="#00E6DC"/>
</linearGradient>
<linearGradient id="paint57_linear_66_302" x1="233.371" y1="261.932" x2="231.842" y2="263.461" gradientUnits="userSpaceOnUse">
<stop stop-color="#006DAD"/>
<stop offset="0.5" stop-color="#00B8F1"/>
<stop offset="1" stop-color="#00E6DC"/>
</linearGradient>
<linearGradient id="paint58_linear_66_302" x1="239.951" y1="258.19" x2="238.359" y2="259.782" gradientUnits="userSpaceOnUse">
<stop stop-color="#006DAD"/>
<stop offset="0.5" stop-color="#00B8F1"/>
<stop offset="1" stop-color="#00E6DC"/>
</linearGradient>
<linearGradient id="paint59_linear_66_302" x1="246.635" y1="254.946" x2="245.035" y2="256.547" gradientUnits="userSpaceOnUse">
<stop stop-color="#006DAD"/>
<stop offset="0.5" stop-color="#00B8F1"/>
<stop offset="1" stop-color="#00E6DC"/>
</linearGradient>
<linearGradient id="paint60_linear_66_302" x1="253.51" y1="251.891" x2="251.947" y2="253.454" gradientUnits="userSpaceOnUse">
<stop stop-color="#006DAD"/>
<stop offset="0.5" stop-color="#00B8F1"/>
<stop offset="1" stop-color="#00E6DC"/>
</linearGradient>
</defs>
</svg>
