<svg width="204" height="739" viewBox="0 0 204 739" fill="none" xmlns="http://www.w3.org/2000/svg">
<path d="M126.363 570.395C126.079 562.545 122.75 555.341 116.884 549.796C102.432 536.045 78.7511 540.19 69.7892 558.026C68.2802 560.987 67.7203 562.861 67.1035 566.69C65.6915 575.456 67.1983 581.798 72.2939 588.925C78.444 597.513 87.5293 601.975 97.8788 601.471C109.166 600.911 119.464 593.68 124.082 582.95C125.398 579.905 126.473 573.876 126.363 570.395Z" fill="url(#paint0_linear_65_57)"/>
<path d="M113.278 435.4C112.858 435.125 112.238 435.129 111.888 435.383C110.953 436.059 111.255 437.71 112.361 437.888C113.669 438.099 114.412 436.048 113.278 435.4Z" fill="url(#paint1_linear_65_57)"/>
<path d="M111.313 447.281C110.799 446.63 110.489 446.632 109.679 447.173C108.795 447.858 108.779 447.959 109.403 448.886C110.002 449.654 110.295 449.753 110.988 449.297C111.498 449.017 111.923 448.62 111.955 448.419C111.988 448.217 111.709 447.707 111.313 447.281Z" fill="url(#paint2_linear_65_57)"/>
<path d="M115.048 421.212C114.627 420.938 114.008 420.941 113.657 421.195C112.781 421.829 113.25 423.404 114.288 423.364C115.477 423.349 116.039 421.786 115.048 421.212Z" fill="url(#paint3_linear_65_57)"/>
<path d="M115.858 412.659C114.866 412.086 114.14 412.434 113.953 413.593C113.872 414.097 113.984 414.683 114.211 414.875C114.934 415.509 116.313 414.955 116.468 413.998C116.549 413.494 116.286 412.883 115.858 412.659Z" fill="url(#paint4_linear_65_57)"/>
<path d="M108.984 455.331C108.606 455.115 107.986 455.119 107.636 455.372C106.701 456.049 107.194 457.472 108.401 457.667C109.609 457.861 110.118 455.979 108.984 455.331Z" fill="url(#paint5_linear_65_57)"/>
<path d="M107.126 463.664C106.611 463.012 106.31 462.964 105.601 463.521C104.666 464.198 104.758 465.867 105.714 466.021C106.368 466.126 107.687 465.305 107.776 464.75C107.809 464.549 107.522 464.089 107.126 463.664Z" fill="url(#paint6_linear_65_57)"/>
<path d="M116.645 404.568C116.139 403.866 114.598 403.825 114.233 404.49C113.66 405.483 114.319 406.519 115.407 406.488C116.387 406.491 117.151 405.27 116.645 404.568Z" fill="url(#paint7_linear_65_57)"/>
<path d="M104.336 471.691C103.916 471.416 103.296 471.42 102.946 471.674C102.07 472.308 102.539 473.882 103.577 473.843C104.766 473.828 105.328 472.264 104.336 471.691Z" fill="url(#paint8_linear_65_57)"/>
<path d="M116.164 395.704C115.173 395.13 114.137 395.791 114.168 396.881C114.201 398.282 116.078 398.481 116.498 397.153C116.696 396.565 116.542 395.92 116.164 395.704Z" fill="url(#paint9_linear_65_57)"/>
<path d="M101.529 479.509C100.638 478.952 99.7443 479.376 99.5577 480.535C99.4035 481.492 100.169 482.184 101.282 482.002C102.186 481.837 102.377 480.007 101.529 479.509Z" fill="url(#paint10_linear_65_57)"/>
<path d="M115.877 387.233C114.936 386.667 114.085 387.15 113.906 388.259C113.719 389.418 114.3 389.976 115.421 389.743C116.492 389.502 116.826 387.747 115.877 387.233Z" fill="url(#paint11_linear_65_57)"/>
<path d="M98.4199 487.278C98.1425 487.078 97.5065 487.182 96.9808 487.563C96.1046 488.197 96.0884 488.298 96.7211 489.175C97.5225 490.286 98.543 490.037 98.7621 488.677C98.8433 488.173 98.6892 487.528 98.4199 487.278Z" fill="url(#paint12_linear_65_57)"/>
<path d="M115.164 378.848C114.273 378.291 113.379 378.715 113.193 379.874C113.039 380.831 113.804 381.523 114.917 381.341C115.821 381.176 116.013 379.346 115.164 378.848Z" fill="url(#paint13_linear_65_57)"/>
<path d="M94.9085 494.982C94.4883 494.708 93.8685 494.711 93.518 494.965C92.5835 495.641 92.8851 497.292 93.9916 497.47C95.2993 497.681 96.0425 495.63 94.9085 494.982Z" fill="url(#paint14_linear_65_57)"/>
<path d="M114.352 370.757C113.837 370.106 113.527 370.107 112.718 370.649C111.834 371.333 111.817 371.434 112.442 372.362C113.041 373.13 113.334 373.229 114.027 372.772C114.536 372.492 114.962 372.096 114.994 371.894C115.026 371.693 114.747 371.183 114.352 370.757Z" fill="url(#paint15_linear_65_57)"/>
<path d="M91.0953 502.638C90.2047 502.081 89.3107 502.505 89.124 503.664C88.9698 504.621 89.7356 505.313 90.8486 505.131C91.7523 504.966 91.9438 503.136 91.0953 502.638Z" fill="url(#paint16_linear_65_57)"/>
<path d="M113.135 362.291C112.621 361.64 112.311 361.642 111.502 362.183C110.617 362.868 110.601 362.968 111.226 363.896C111.824 364.664 112.118 364.763 112.811 364.306C113.32 364.027 113.745 363.63 113.778 363.428C113.81 363.227 113.531 362.717 113.135 362.291Z" fill="url(#paint17_linear_65_57)"/>
<path d="M127.055 271.393C126.991 262.183 122.605 251.294 116.339 244.702C112.979 241.215 107.288 237.145 102.956 235.207C98.6748 233.277 88.0626 231.567 83.3835 232.106C68.4667 233.734 55.8014 243.169 50.1269 256.934C48.2657 261.441 46.9267 269.754 47.2703 274.668C47.9171 283.145 51.7584 292.292 57.31 298.51C77.292 320.853 113.74 314.009 124.408 285.904C125.912 282.012 127.06 275.529 127.055 271.393Z" fill="url(#paint18_linear_65_57)"/>
<path d="M87.3323 510.302C86.1983 509.654 84.8857 510.114 84.9327 511.104C84.9359 511.725 85.3901 512.108 86.1949 512.238C87.6534 512.472 88.5166 510.958 87.3323 510.302Z" fill="url(#paint19_linear_65_57)"/>
<path d="M111.862 354.178C111.356 353.476 109.815 353.435 109.45 354.099C108.877 355.093 109.536 356.129 110.624 356.098C111.604 356.1 112.368 354.88 111.862 354.178Z" fill="url(#paint20_linear_65_57)"/>
<path d="M82.9985 517.667C82.2149 516.765 80.7839 517 80.6297 517.957C80.5648 518.36 80.8195 519.021 81.165 519.439C81.6874 520.04 81.9892 520.088 82.6739 519.682C83.7593 519.03 83.8242 518.627 82.9985 517.667Z" fill="url(#paint21_linear_65_57)"/>
<path d="M108.795 345.672C108.024 345.652 107.557 345.99 107.451 346.645C107.208 348.156 109.194 348.321 109.638 346.842C109.951 345.859 109.825 345.683 108.795 345.672Z" fill="url(#paint22_linear_65_57)"/>
<path d="M65.4619 612.117C65.8575 591.402 54.3151 573.365 35.0314 564.625C29.5494 562.139 18.0319 560.284 11.594 560.849C-3.3746 562.16 -16.9857 570.098 -25.4231 582.436C-30.3363 589.552 -31.9233 593.638 -33.35 602.816C-34.405 609.365 -34.5203 611.362 -34.1409 615.093C-32.3671 632.591 -22.1387 647.574 -6.77149 655.321C0.534081 658.979 7.69538 660.649 15.9114 660.577C39.5875 660.308 59.5704 643.886 64.2835 620.714C64.9132 617.766 65.4293 613.921 65.4619 612.117Z" fill="url(#paint23_linear_65_57)"/>
<path d="M78.2101 524.648C77.6959 523.997 77.386 523.999 76.5764 524.54C75.6921 525.225 75.6759 525.326 76.3004 526.253C76.8991 527.022 77.1927 527.121 77.8855 526.664C78.395 526.384 78.8201 525.987 78.8525 525.786C78.885 525.584 78.606 525.074 78.2101 524.648Z" fill="url(#paint24_linear_65_57)"/>
<path d="M107.272 337.829C106.639 336.952 106.438 336.919 105.671 337.519C104.678 338.238 104.794 339.756 105.85 339.926C106.253 339.991 106.905 339.786 107.272 339.431C107.814 338.95 107.82 338.589 107.272 337.829Z" fill="url(#paint25_linear_65_57)"/>
<path d="M73.4463 531.479C72.9904 530.785 71.8434 530.859 71.4199 531.566C70.8552 532.509 71.7085 533.939 72.7209 533.74C73.4656 533.601 73.9524 532.181 73.4463 531.479Z" fill="url(#paint26_linear_65_57)"/>
<path d="M104.952 329.806C104.784 329.572 104.204 329.323 103.701 329.242C103.048 329.137 102.739 329.449 102.585 330.406C102.415 331.464 102.583 331.698 103.513 331.693C104.694 331.728 105.493 330.616 104.952 329.806Z" fill="url(#paint27_linear_65_57)"/>
<path d="M68.5249 538.646C68.1259 537.6 66.3347 537.828 66.1481 538.987C66.0426 539.642 66.38 540.11 67.0176 540.316C68.15 540.653 69.0165 539.759 68.5249 538.646Z" fill="url(#paint28_linear_65_57)"/>
<path d="M101.619 321.671C101.104 321.019 100.794 321.021 99.9849 321.562C99.1006 322.247 99.0844 322.348 99.7089 323.275C100.308 324.044 100.601 324.143 101.294 323.686C101.803 323.406 102.229 323.009 102.261 322.808C102.294 322.606 102.014 322.096 101.619 321.671Z" fill="url(#paint29_linear_65_57)"/>
<path d="M62.7179 544.585C61.7266 544.012 60.8829 544.444 60.6881 545.654C60.5664 546.409 60.8276 546.71 61.6567 546.688C63.0471 546.706 63.8016 545.225 62.7179 544.585Z" fill="url(#paint30_linear_65_57)"/>
<path d="M98.3273 313.594C97.4366 313.037 96.5426 313.462 96.3559 314.621C96.2018 315.578 96.9675 316.27 98.0805 316.087C98.9842 315.923 99.1758 314.093 98.3273 313.594Z" fill="url(#paint31_linear_65_57)"/>
<path d="M57.4332 551.125C57.2645 550.891 56.6853 550.643 56.1823 550.562C55.5285 550.456 55.2202 550.769 55.066 551.726C54.8956 552.784 55.0643 553.018 55.994 553.012C57.1751 553.048 57.9734 551.936 57.4332 551.125Z" fill="url(#paint32_linear_65_57)"/>
<path d="M50.9205 556.64C50.0298 556.083 49.1358 556.508 48.9491 557.667C48.795 558.624 49.5607 559.316 50.6737 559.133C51.5774 558.969 51.769 557.139 50.9205 556.64Z" fill="url(#paint33_linear_65_57)"/>
<path d="M44.836 562.379C43.895 561.814 43.0432 562.297 42.8646 563.406C42.678 564.564 43.2588 565.123 44.3799 564.89C45.4507 564.649 45.7851 562.894 44.836 562.379Z" fill="url(#paint34_linear_65_57)"/>
<path d="M46.071 405.76C51.49 353.86 36.4226 301.968 3.94746 260.763L0.777511 256.737L3.45647 251.638C7.98521 243.064 12.3552 231.312 13.0467 225.737L13.3616 223.462L12.5632 226.176L11.7145 228.882L12.2273 226.019C12.487 224.407 12.6218 222.93 12.4531 222.696C12.0735 222.169 12.3332 220.557 12.8848 220.336C13.1022 220.268 13.2222 220.804 13.0583 221.501C12.8879 222.559 13.0826 222.952 13.9717 223.199C15.5405 223.71 16.3032 222.179 15.0491 220.995C14.1487 220.178 14.1293 219.658 14.7379 215.879C16.1662 207.012 15.6431 193.283 13.4729 183.371C10.4009 169.127 5.13854 157.27 -3.33954 145.515C-9.48963 136.927 -20.8135 125.541 -22.4765 126.255C-22.9113 126.391 -23.0038 126.325 -22.6874 125.962C-22.0546 125.237 -30.4682 119.489 -37.6569 115.746C-43.9387 112.46 -50.6863 109.823 -57.7567 107.908C-62.9906 106.445 -73.6871 104.619 -75.6211 104.772C-76.726 104.904 -76.7925 104.997 -76.2166 106.227C-75.1995 108.562 -73.0907 114.69 -73.3422 114.65C-73.4931 114.625 -74.2052 112.96 -74.9109 110.934C-77.8599 102.654 -84.3715 90.5443 -90.6141 81.889C-102.991 64.5443 -120.342 50.5332 -139.732 42.1376C-150.494 37.5096 -155.82 35.9797 -168.796 33.8894C-181.168 31.8964 -186.287 31.6404 -197.162 32.5246C-213.932 33.8032 -231.685 39.2651 -246.325 47.5028C-279.144 66.0955 -301.32 99.0144 -306.145 136.331C-307.472 146.816 -307.614 153.461 -306.751 163.162C-304.754 185.037 -296.977 205.311 -283.608 223.539L-278.573 230.398L-284.167 235.337C-302.093 251.16 -317.844 271.107 -328.111 290.955C-329.463 293.58 -330.774 295.953 -331.015 296.173C-331.316 296.434 -332.302 298.395 -333.329 300.607C-334.298 302.777 -335.186 304.443 -335.32 304.318C-335.396 304.15 -334.934 302.881 -334.238 301.442C-332.531 297.893 -332.573 297.834 -334.645 297.242C-336.373 296.757 -336.373 296.757 -334.369 297.131C-333.22 297.368 -332.24 297.371 -332.208 297.169C-332.111 296.565 -334.742 296.244 -340.765 296.153C-381.64 295.564 -418.808 320.331 -434.224 358.37C-435.348 361.187 -437.252 367.238 -438.451 371.8C-440.53 379.58 -440.7 380.638 -441.137 388.476C-441.707 398.101 -441.335 405.397 -439.912 413.224C-438.576 420.624 -436.162 429.024 -435.444 428.727C-435.168 428.616 -435.092 428.783 -435.249 429.12C-435.739 429.92 -432.355 438.063 -428.948 444.142C-425.845 449.862 -420.842 456.922 -416.52 461.805C-412.021 466.871 -404.953 473.282 -404.049 473.118C-403.622 473.031 -403.488 473.156 -403.679 473.384C-404.129 473.932 -395.512 480.023 -389.868 483.103C-387.877 484.199 -386.247 485.289 -386.279 485.49C-386.32 485.742 -387.748 488.2 -389.442 491.028C-394.524 499.514 -398.514 508.588 -401.777 518.917C-404.225 526.741 -406.951 543.668 -407.087 551.555C-407.356 575.649 -401.654 597.914 -390.316 616.901C-371.636 648.286 -341.733 668.299 -306.557 672.88C-289.325 675.139 -275.679 674.029 -259.239 669.028C-233.583 661.272 -212.772 646.121 -196.991 623.749C-191.105 615.394 -187.71 609.377 -184.036 600.665C-181.951 595.729 -178.477 585.692 -178.16 583.727C-178.12 583.476 -175.892 583.421 -173.102 583.715C-145.181 586.249 -120.979 583.997 -95.6236 576.503C-29.299 556.847 22.7715 503.313 40.2348 436.865C42.8962 426.75 45.1213 414.859 46.071 405.76ZM13.607 217.454C13.7255 216.078 14.0664 213.962 14.3779 212.668C14.6976 211.324 14.5694 212.441 14.1474 215.06C13.7254 217.68 13.4966 218.78 13.607 217.454ZM14.4836 208.809C14.4642 208.289 14.6103 207.382 14.8083 206.794C15.0144 206.155 15.05 206.574 14.8715 207.682C14.7432 208.799 14.5615 209.286 14.4836 208.809ZM10.6694 232.487C10.65 231.967 10.7961 231.06 10.994 230.472C11.2001 229.833 11.2358 230.253 11.0572 231.361C10.929 232.477 10.7472 232.965 10.6694 232.487ZM14.5893 204.949C14.5456 204.58 14.6592 203.875 14.8328 203.438C15.0648 202.958 15.1168 203.277 14.9869 204.083C14.8489 204.939 14.6915 205.276 14.5893 204.949ZM9.63895 235.681C9.59519 235.312 9.7088 234.607 9.88241 234.17C10.1145 233.69 10.1664 234.009 10.0365 234.815C9.89855 235.671 9.74114 236.008 9.63895 235.681ZM14.5733 201.845C14.5296 201.477 14.6432 200.771 14.8168 200.334C15.0488 199.855 15.1007 200.173 14.9709 200.979C14.8329 201.836 14.6755 202.172 14.5733 201.845ZM8.64908 238.623C8.60532 238.254 8.7027 237.649 8.85197 237.363C9.05966 237.035 9.11968 237.303 9.00607 238.008C8.89245 238.714 8.75127 238.949 8.64908 238.623ZM14.5751 198.951C14.4486 198.776 14.4713 198.314 14.679 197.986C14.8948 197.607 15.0214 197.783 14.9321 198.337C14.8931 198.899 14.6935 199.177 14.5751 198.951ZM6.79107 243.751C6.04625 245.491 5.38259 246.728 5.3226 246.46C5.321 246.15 5.9571 244.443 6.77655 242.559C7.63817 240.734 8.30183 239.497 8.24502 239.85C8.2385 240.211 7.544 241.959 6.79107 243.751ZM14.2347 194.658C14.1018 193.241 14.0191 191.832 14.0678 191.53C14.3063 190.69 14.8658 195.225 14.6954 196.283C14.6061 196.837 14.4098 196.134 14.2347 194.658ZM13.3688 187.541C12.8368 185.078 13.0332 184.179 13.5717 186.281C13.8361 187.203 13.9755 188.259 13.9106 188.662C13.8457 189.065 13.5666 188.555 13.3688 187.541ZM8.34204 219.707C7.34907 220.426 5.55468 220.034 4.94633 219.005C4.1352 217.634 5.62471 215.755 7.18387 216.006C9.04477 216.306 9.8023 218.651 8.34204 219.707ZM3.10279 251.271C1.93128 253.098 2.02708 252.183 3.30568 250.012C3.81193 249.111 4.23706 248.715 4.17213 249.118C4.10721 249.521 3.63501 250.53 3.10279 251.271ZM12.3794 182.471C12.055 181.282 11.8312 180.109 11.8799 179.806C11.9205 179.554 12.2173 180.274 12.592 181.472C12.9164 182.661 13.1321 183.885 13.0916 184.137C13.0429 184.439 12.7038 183.661 12.3794 182.471ZM0.686738 255.379C0.444989 255.598 -2.09722 253.121 -4.93627 249.925C-7.83372 246.77 -13.1631 241.415 -16.7565 238.097C-25.7443 229.826 -25.2478 230.268 -23.8526 231.216C-21.3818 232.855 -9.90051 243.905 -4.85511 249.421L0.350908 255.221L1.23197 253.916C2.03838 252.754 2.03838 252.754 1.60026 253.872C1.28547 254.545 0.920372 255.21 0.686738 255.379ZM11.708 178.952C11.3365 178.375 8.41348 168.652 8.66494 168.693C8.96671 168.741 12.0049 178.069 11.8994 178.724C11.9091 178.984 11.7923 179.069 11.708 178.952ZM0.41671 216.053C-0.826151 217.042 -1.58056 216.92 -2.52634 215.424C-3.3034 214.162 -2.83121 213.152 -1.05949 212.404C-0.391018 212.098 0.0372984 212.322 0.686201 213.099C1.75693 214.46 1.71795 215.022 0.41671 216.053ZM8.24315 168.108C8.14258 168.092 7.87167 167.531 7.66728 166.878C7.29256 165.68 7.34287 165.689 7.90091 166.709C8.5855 167.905 8.64552 168.173 8.24315 168.108ZM6.64855 164.233C1.74463 153.674 -5.32849 143.128 -12.1406 136.086C-16.6036 131.439 -17.4391 130.219 -13.466 134.064C-9.31611 138.092 -2.97615 146.143 0.123977 151.242C3.05539 156.108 7.49707 164.731 7.34937 165.328C7.32502 165.479 6.9876 165.011 6.64855 164.233ZM-6.94567 212.748C-7.6531 213.616 -9.88072 213.671 -10.2457 212.733C-10.3641 212.508 -9.89524 212.48 -9.21547 212.744C-7.31078 213.413 -6.20416 211.989 -7.3852 210.351C-7.7145 209.833 -7.80858 209.456 -7.50684 209.505C-7.25535 209.545 -6.81733 210.029 -6.64699 210.574C-6.16358 211.737 -6.15547 211.687 -6.94567 212.748ZM-10.33 211.014C-10.4192 211.568 -10.5279 211.602 -10.6642 211.167C-10.8442 210.363 -9.6192 209.165 -8.76419 209.302C-8.46242 209.351 -8.65388 209.578 -9.15523 209.808C-9.69876 209.979 -10.2066 210.569 -10.33 211.014ZM-15.3641 207.671C-16.5338 206.603 -17.9973 207.04 -18.0152 208.432C-18.0494 209.926 -16.4465 210.546 -15.2961 209.491C-14.8045 209.001 -14.5871 208.933 -14.7526 209.32C-14.9181 209.707 -15.5103 210.18 -16.0117 210.409C-17.9002 211.242 -19.456 208.407 -17.8967 207.056C-16.9962 206.271 -15.6302 206.439 -14.9553 207.375C-14.2382 208.369 -14.3631 208.504 -15.3641 207.671ZM-26.6593 229.42C-27.391 228.837 -28.022 228.271 -27.9977 228.119C-27.9815 228.019 -27.3098 228.334 -26.5781 228.917C-25.7962 229.508 -25.2154 230.066 -25.2397 230.218C-25.2559 230.318 -25.8773 230.012 -26.6593 229.42ZM-22.8159 206.522C-22.9018 206.095 -23.1906 205.324 -23.4274 204.873C-23.8249 204.137 -23.7746 204.145 -23.0673 204.879C-22.6714 205.305 -22.3827 206.075 -22.506 206.52C-22.6115 207.175 -22.6699 207.217 -22.8159 206.522ZM-24.7499 208.278C-25.2529 208.197 -25.9846 207.614 -26.3561 207.037C-27.1834 205.767 -26.4208 204.235 -24.7724 203.932C-24.0196 203.744 -24.1023 203.937 -25.0872 204.605C-25.8303 205.054 -26.4469 205.679 -26.4793 205.88C-26.6092 206.686 -25.2383 207.786 -24.1918 207.696C-23.6142 207.634 -23.2784 207.791 -23.5201 208.011C-23.7116 208.238 -24.247 208.359 -24.7499 208.278ZM-31.2424 225.839C-32.7642 224.716 -33.9923 223.691 -33.9761 223.59C-33.9517 223.439 -32.683 224.212 -31.1613 225.336C-29.6395 226.459 -28.4114 227.484 -28.4276 227.585C-28.4519 227.736 -29.7207 226.963 -31.2424 225.839ZM-19.6066 128.94C-20.5654 128.165 -21.4998 127.239 -21.761 126.939C-22.225 126.295 -20.3755 127.627 -18.8441 129.011C-17.1779 130.52 -17.7896 130.473 -19.6066 128.94ZM-31.3075 203.5C-31.4778 202.956 -32.0667 202.447 -32.5113 202.324C-33.0645 202.235 -33.0986 202.126 -32.6638 201.989C-31.8606 201.809 -30.665 203.035 -30.8029 203.891C-30.8516 204.194 -31.0788 204.002 -31.3075 203.5ZM-32.1319 206.055C-32.7257 206.218 -33.5466 206.189 -33.9246 205.973C-34.8656 205.408 -35.1121 203.094 -34.2943 202.502C-33.8271 202.164 -33.8011 202.323 -34.1321 203.097C-34.5459 204.064 -33.9928 205.755 -33.1378 205.893C-32.9366 205.925 -32.3265 205.662 -31.8511 205.273C-31.3335 204.943 -30.9571 204.849 -31.0058 205.151C-31.0545 205.453 -31.5802 205.834 -32.1319 206.055ZM-36.0608 222.117C-36.4891 221.893 -36.7 221.601 -36.5329 221.524C-36.3576 221.397 -36.064 221.496 -35.7947 221.746C-35.063 222.329 -35.2626 222.607 -36.0608 222.117ZM-41.2215 218.598C-42.7514 217.525 -43.7946 216.633 -43.5853 216.615C-43.032 216.704 -38.0806 220.241 -38.3224 220.461C-38.4392 220.545 -39.7501 219.714 -41.2215 218.598ZM-25.9305 123.993C-27.3176 122.994 -28.3608 122.102 -28.244 122.018C-27.96 121.857 -23.286 125.194 -23.3428 125.547C-23.3672 125.698 -24.5434 124.991 -25.9305 123.993ZM-42.413 203.572C-43.6397 204.46 -44.4363 204.28 -45.348 202.892C-46.2175 201.563 -45.7453 200.554 -44.006 200.007C-42.76 199.639 -42.76 199.639 -44.1213 200.402C-45.0315 200.927 -45.4306 201.483 -45.3187 202.07C-45.0187 203.411 -43.7597 203.923 -42.6499 203.12C-41.8321 202.528 -41.7413 202.284 -42.1825 201.18C-42.674 200.067 -42.6659 200.016 -42.017 200.793C-41.0988 201.819 -41.1945 202.734 -42.413 203.572ZM-45.9361 215.513C-46.6256 214.988 -47.0717 214.554 -46.8624 214.536C-46.2589 214.634 -44.132 216.165 -44.3657 216.334C-44.4906 216.469 -45.2044 216.096 -45.9361 215.513ZM-31.1415 120.466C-32.05 119.699 -31.732 119.647 -30.4974 120.311C-30.0772 120.585 -29.8663 120.878 -30.0334 120.954C-30.1584 121.089 -30.6873 120.849 -31.1415 120.466ZM-33.494 119.053C-34.4025 118.286 -34.0845 118.234 -32.8499 118.898C-32.4297 119.173 -32.2187 119.465 -32.3859 119.541C-32.5108 119.676 -33.0397 119.436 -33.494 119.053ZM-49.8769 213.069C-50.9946 212.32 -51.7766 211.729 -51.5754 211.761C-50.9638 211.808 -47.3508 214.044 -47.5844 214.213C-47.7093 214.348 -48.759 213.817 -49.8769 213.069ZM-37.1476 117.069C-38.3822 116.405 -39.2647 115.797 -39.1479 115.713C-39.0311 115.628 -37.9149 116.067 -36.6803 116.731C-35.4456 117.395 -34.5631 118.002 -34.6799 118.087C-34.7967 118.171 -35.9129 117.733 -37.1476 117.069ZM-57.6804 208.659C-60.5277 207.115 -62.5946 205.851 -62.2425 205.908C-61.4297 205.987 -52.0053 211.227 -52.2893 211.388C-52.4061 211.473 -54.8413 210.253 -57.6804 208.659ZM-40.8514 115.077C-41.2294 114.861 -41.0542 114.734 -40.501 114.823C-39.9396 114.862 -39.6622 115.061 -39.8877 115.18C-40.0629 115.307 -40.5237 115.284 -40.8514 115.077ZM-56.1079 201.779C-57.2339 202.683 -58.5075 202.582 -59.2245 201.587C-59.9838 200.535 -59.6381 199.35 -58.3693 198.521C-56.9253 197.564 -55.1602 198.779 -55.1165 200.75C-55.0905 200.909 -55.5238 201.357 -56.1079 201.779ZM-45.2919 113.173C-46.3237 112.851 -46.9873 112.486 -46.8121 112.359C-46.6952 112.275 -45.798 112.471 -44.8246 112.834C-43.7928 113.156 -43.1292 113.521 -43.3045 113.648C-43.4213 113.732 -44.3185 113.536 -45.2919 113.173ZM-49.9076 111.395C-51.0319 111.007 -51.8463 110.618 -51.6792 110.541C-51.504 110.414 -50.5062 110.627 -49.3819 111.015C-48.2576 111.403 -47.4934 111.784 -47.6103 111.869C-47.7352 112.004 -48.7833 111.783 -49.9076 111.395ZM-65.4646 204.769C-66.5646 204.23 -67.3125 203.748 -67.1957 203.663C-67.0708 203.528 -66.047 203.9 -64.9973 204.431C-63.8973 204.97 -63.1495 205.452 -63.2663 205.536C-63.3912 205.671 -64.4149 205.3 -65.4646 204.769ZM-64.8203 201.41C-65.3541 201.84 -66.0226 202.146 -66.3243 202.098C-66.6261 202.049 -66.4347 201.821 -65.883 201.6C-65.3313 201.379 -64.6142 200.771 -64.2653 200.207C-63.9165 199.643 -63.6828 199.474 -63.7478 199.877C-63.7624 200.288 -64.2362 200.987 -64.8203 201.41ZM-65.0115 198.433C-65.5826 198.134 -66.462 198.147 -66.9714 198.427C-67.8736 198.902 -67.8736 198.902 -66.9812 198.167C-66.3305 197.652 -65.6442 197.555 -64.9807 197.921C-64.4518 198.161 -63.9975 198.544 -64.0138 198.645C-64.0381 198.796 -64.4827 198.673 -65.0115 198.433ZM-54.6985 109.745C-55.1771 109.513 -54.7586 109.477 -53.8029 109.631C-52.8473 109.785 -52.4612 109.95 -52.9382 110.028C-53.4574 110.048 -54.2621 109.918 -54.6985 109.745ZM-67.2994 201.424C-67.4 201.408 -67.6709 200.847 -67.8753 200.194C-68.25 198.996 -68.1997 199.005 -67.6416 200.025C-66.957 201.22 -66.897 201.489 -67.2994 201.424ZM-70.7455 202.316C-72.7345 201.53 -73.1385 201.155 -72.8237 200.482C-72.16 199.245 -73.5163 197.735 -74.8208 198.145C-75.3724 198.366 -75.9143 198.847 -75.9792 199.25C-76.1091 200.056 -76.9544 200.179 -77.2009 199.467C-77.2609 199.199 -76.8731 198.073 -76.3182 196.87C-75.3154 194.809 -75.3154 194.809 -75.859 196.582L-76.4189 198.456L-75.0316 197.852C-73.7531 197.283 -73.6022 197.307 -72.7587 198.477C-72.2525 199.179 -72.0303 200.041 -72.238 200.37C-72.4619 200.799 -71.8227 201.315 -70.1776 201.994C-68.8262 202.573 -67.8771 203.088 -67.9939 203.173C-68.1188 203.308 -69.3437 202.903 -70.7455 202.316ZM-58.8924 108.552C-59.53 108.346 -59.0109 108.327 -57.7535 108.529C-56.4961 108.732 -56.0094 108.913 -56.6292 108.917C-57.2992 108.912 -58.3051 108.75 -58.8924 108.552ZM-71.2796 183.209C-71.7243 184.688 -71.1172 180.599 -69.9698 174.116C-68.8223 167.634 -67.7543 161.965 -67.6391 161.57C-67.0436 160.115 -70.4893 180.545 -71.2796 183.209ZM-67.7866 158.962C-67.733 157.988 -67.7182 154.373 -67.6936 151.017C-67.7112 147.603 -67.617 144.775 -67.5001 144.691C-67.3833 144.606 -67.2715 146.795 -67.2068 149.596C-67.1924 152.39 -67.1536 155.032 -67.1179 155.451C-67.1326 155.863 -67.3014 157.231 -67.5043 158.49C-67.8045 160.355 -67.8711 160.447 -67.7866 158.962ZM-73.0614 188.504C-73.0808 187.984 -72.951 187.178 -72.7774 186.741C-72.5453 186.261 -72.5097 186.681 -72.6639 187.638C-72.8181 188.595 -72.9836 188.982 -73.0614 188.504ZM-74.5025 193.286C-75.0736 194.589 -75.1239 194.581 -74.9454 193.473C-74.8318 192.767 -74.4358 191.591 -74.0967 190.767C-73.5255 189.463 -73.4752 189.471 -73.6537 190.58C-73.7673 191.285 -74.1714 192.512 -74.5025 193.286ZM-71.6365 105.983C-73.791 105.584 -72.1151 105.75 -67.9909 106.415C-63.8164 107.087 -62.0723 107.472 -64.0922 107.198C-66.1203 106.975 -69.49 106.432 -71.6365 105.983ZM-68.4634 138.178C-68.8575 134.858 -69.3359 131.421 -69.5078 130.567C-69.73 129.704 -69.7089 128.932 -69.5921 128.848C-69.4168 128.721 -68.9254 131.436 -68.447 134.873C-67.9767 138.36 -67.5421 141.428 -67.4821 141.696C-67.4302 142.014 -67.4351 142.685 -67.5244 143.24C-67.6137 143.794 -68.0191 141.506 -68.4634 138.178ZM-70.4096 126.235C-70.734 125.046 -70.9578 123.872 -70.9091 123.57C-70.8686 123.318 -70.5717 124.038 -70.197 125.235C-69.8726 126.425 -69.6569 127.648 -69.6975 127.9C-69.7462 128.202 -70.0852 127.424 -70.4096 126.235ZM-71.8207 120.58C-72.2717 119.216 -72.6301 117.917 -72.5815 117.615C-72.5409 117.363 -72.1094 118.208 -71.6584 119.573C-71.2075 120.938 -70.8571 122.286 -70.8977 122.538C-70.9464 122.84 -71.3698 121.945 -71.8207 120.58ZM-347.347 448.81C-352.625 451.785 -362.637 459.165 -367.189 463.394C-368.947 465.023 -370.498 466.324 -370.599 466.308C-371.253 466.202 -364.365 460.282 -358.842 456.107C-354.036 452.539 -347.175 448.062 -343.291 446.052C-343.174 445.967 -343.644 444.083 -344.309 441.805C-344.982 439.577 -345.537 437.575 -345.505 437.374C-345.373 436.878 -342.676 445.117 -342.773 445.722C-342.771 446.032 -344.85 447.403 -347.347 448.81ZM-346.47 433.755C-347.621 429.693 -350.21 416.613 -350.338 414.525C-350.359 413.694 -349.829 415.847 -349.157 419.367C-348.486 422.886 -347.362 428.081 -346.677 430.879C-345.198 436.751 -345.08 438.579 -346.47 433.755ZM-350.826 410.828C-352.039 404.585 -353.006 381.118 -352.257 377.104C-352.111 376.197 -351.973 378.546 -352.046 382.204C-352.1 389.586 -351.426 403.34 -350.672 408.268C-350.091 412.032 -350.241 413.92 -350.826 410.828ZM-336.055 306.318C-336.182 306.143 -336.159 305.681 -335.951 305.353C-335.736 304.974 -335.609 305.15 -335.698 305.704C-335.737 306.266 -335.937 306.544 -336.055 306.318ZM-338.129 311.825C-339.015 313.801 -339.62 314.996 -339.531 314.442C-339.336 313.233 -336.424 306.362 -336.544 307.429C-336.558 307.84 -337.293 309.84 -338.129 311.825ZM-342.997 326.03C-344.25 329.963 -345.813 335.5 -346.585 338.374L-347.89 343.591L-346.829 338.283C-345.709 332.933 -342.022 320.295 -340.581 317.116L-339.844 315.425L-340.329 317.156C-340.584 318.097 -341.795 322.089 -342.997 326.03ZM-340.258 296.855C-340.737 296.622 -340.318 296.586 -339.363 296.74C-338.407 296.894 -338.021 297.06 -338.498 297.138C-339.017 297.158 -339.822 297.028 -340.258 296.855ZM-352.221 374.319C-352.216 373.648 -352.037 372.539 -351.815 371.8C-351.585 371.01 -351.573 371.581 -351.792 372.941C-352.02 374.351 -352.218 374.94 -352.221 374.319ZM-351.837 369.057C-351.753 365.969 -351.201 362.544 -350.89 362.852C-350.705 362.985 -350.888 364.765 -351.205 366.73C-351.58 368.737 -351.851 369.778 -351.837 369.057ZM-350.549 357.532C-350.284 355.248 -349.659 351.369 -349.169 348.967C-348.729 346.557 -348.929 348.437 -349.683 353.122C-350.446 357.858 -350.863 359.807 -350.549 357.532ZM-343.609 296.832C-343.936 296.624 -343.669 296.564 -342.965 296.677C-342.26 296.79 -342.025 296.932 -342.351 297.034C-342.72 297.078 -343.323 296.981 -343.609 296.832ZM-382.695 480.537C-384.292 482.761 -385.916 484.515 -386.268 484.459C-386.67 484.394 -386.704 484.285 -386.253 484.047C-385.919 483.895 -384.396 482.124 -382.932 480.086C-380.396 476.514 -371.686 466.65 -371.133 466.739C-371.032 466.755 -372.88 468.938 -375.329 471.645C-377.769 474.301 -381.09 478.263 -382.695 480.537ZM-346.205 296.93C-346.532 296.723 -346.265 296.662 -345.561 296.776C-344.856 296.889 -344.621 297.03 -344.947 297.133C-345.316 297.177 -345.919 297.08 -346.205 296.93ZM-348.801 297.029C-349.128 296.821 -348.861 296.761 -348.156 296.874C-347.452 296.988 -347.217 297.129 -347.543 297.232C-347.911 297.276 -348.515 297.178 -348.801 297.029ZM-350.893 297.209C-351.271 296.993 -351.096 296.866 -350.543 296.955C-349.982 296.994 -349.704 297.194 -349.93 297.312C-350.105 297.439 -350.566 297.417 -350.893 297.209ZM-352.986 297.389C-353.364 297.173 -353.189 297.046 -352.636 297.135C-352.075 297.174 -351.797 297.373 -352.023 297.492C-352.198 297.619 -352.659 297.596 -352.986 297.389ZM-359.514 298.508C-359.765 298.468 -359.632 298.282 -359.189 298.095C-358.746 297.908 -358.009 297.82 -357.607 297.885C-356.802 298.014 -358.55 298.612 -359.514 298.508ZM-388.822 483.013C-389.587 482.322 -389.587 482.322 -388.773 482.711C-388.294 482.943 -387.615 483.208 -387.321 483.307C-386.868 483.38 -386.885 483.481 -387.362 483.559C-387.738 483.653 -388.367 483.397 -388.822 483.013ZM-363.789 299.422C-364.04 299.381 -363.899 299.145 -363.456 298.958C-363.013 298.771 -362.369 298.617 -362.118 298.657C-361.816 298.706 -362.007 298.933 -362.45 299.12C-362.893 299.307 -363.487 299.47 -363.789 299.422ZM-392.61 480.904C-393.518 480.138 -393.2 480.086 -391.966 480.75C-391.546 481.024 -391.335 481.316 -391.502 481.393C-391.627 481.528 -392.156 481.288 -392.61 480.904ZM-367.545 300.316C-367.796 300.275 -367.446 300.021 -366.677 299.732C-365.908 299.442 -365.054 299.27 -364.803 299.31C-364.501 299.359 -364.902 299.604 -365.671 299.894C-366.44 300.183 -367.243 300.364 -367.545 300.316ZM-394.962 479.492C-395.871 478.725 -395.553 478.673 -394.318 479.337C-393.898 479.611 -393.687 479.904 -393.854 479.98C-393.979 480.115 -394.508 479.875 -394.962 479.492ZM-372.537 301.837C-374.711 302.521 -376.484 302.959 -376.46 302.808C-376.42 302.556 -369.011 300.131 -368.508 300.212C-367.905 300.309 -368.507 300.522 -372.537 301.837ZM-400.19 476.065C-401.762 474.933 -402.99 473.909 -402.965 473.757C-402.941 473.606 -401.588 474.496 -399.915 475.644C-398.301 476.835 -397.023 477.868 -397.14 477.952C-397.256 478.037 -398.609 477.147 -400.19 476.065ZM-378.172 303.824C-378.774 304.037 -379.243 304.065 -379.226 303.964C-379.202 303.813 -378.693 303.533 -378.091 303.32C-377.489 303.107 -377.02 303.079 -377.036 303.18C-377.06 303.331 -377.57 303.611 -378.172 303.824ZM-405.277 472.093C-405.782 471.701 -406.178 471.276 -406.153 471.125C-406.137 471.024 -405.701 471.198 -405.196 471.589C-404.692 471.98 -404.296 472.406 -404.32 472.557C-404.336 472.658 -404.773 472.484 -405.277 472.093ZM-386.578 307.639C-392.902 310.703 -402.817 317.479 -407.977 322.282C-412.278 326.241 -413.247 326.809 -410.156 323.637C-404.949 318.221 -388.564 307.474 -381.141 304.638C-378.834 303.769 -380.537 304.735 -386.578 307.639ZM-407.549 470.176C-408.053 469.785 -408.449 469.359 -408.425 469.208C-408.408 469.107 -407.972 469.281 -407.467 469.673C-406.963 470.064 -406.567 470.49 -406.591 470.641C-406.608 470.741 -407.044 470.568 -407.549 470.176ZM-410.334 467.608C-416.05 462.088 -423.139 453.244 -426.755 447.183C-427.642 445.644 -425.762 448.066 -422.514 452.57C-419.267 457.073 -414.883 462.534 -412.695 464.644C-410.564 466.796 -408.846 468.623 -408.871 468.775C-408.887 468.875 -409.576 468.351 -410.334 467.608ZM-428.582 443.787C-429.078 443.346 -432.117 437.222 -433.017 434.803C-433.747 432.928 -433.992 432.527 -430.176 439.912C-427.985 444.245 -427.951 444.354 -428.582 443.787ZM-419.565 334.319C-420.141 334.692 -416.538 330.259 -414.488 328.108C-413.489 327.028 -412.58 326.192 -412.48 326.209C-412.278 326.241 -418.997 333.997 -419.565 334.319ZM-433.789 432.87C-433.89 432.853 -434.237 432.126 -434.551 431.196C-435.199 429.128 -434.78 429.092 -434.083 431.168C-433.479 432.868 -433.437 432.926 -433.789 432.87ZM-423.583 339.72C-423.743 339.435 -421.074 335.679 -420.722 335.735C-420.571 335.76 -421.136 336.702 -421.942 337.865C-422.741 338.976 -423.448 339.845 -423.583 339.72ZM-435.573 427.93C-435.875 427.882 -437.22 423.737 -437.131 423.183C-437.048 422.989 -436.624 423.885 -436.173 425.249C-435.221 427.987 -435.221 427.987 -435.573 427.93ZM-425.541 343.229C-426.057 343.869 -426.416 344.173 -426.367 343.871C-426.327 343.619 -425.895 342.862 -425.379 342.221C-424.863 341.581 -424.512 341.327 -424.553 341.579C-424.602 341.881 -425.025 342.588 -425.541 343.229ZM-437.958 420.31C-438.247 419.54 -438.427 418.736 -438.378 418.433C-438.337 418.181 -438.084 418.532 -437.795 419.302C-437.507 420.073 -437.335 420.927 -437.375 421.179C-437.424 421.481 -437.669 421.08 -437.958 420.31ZM-428.133 347.463C-428.515 347.919 -428.541 347.759 -428.152 346.943C-427.887 346.262 -427.339 345.42 -427.023 345.058C-426.64 344.603 -426.614 344.762 -427.003 345.578C-427.268 346.259 -427.816 347.101 -428.133 347.463ZM-438.678 417.093C-438.865 416.649 -439.02 415.694 -439.108 414.956C-439.189 413.858 -439.096 413.924 -438.696 415.281C-438.201 417.015 -438.177 418.466 -438.678 417.093ZM-431.058 353.453C-431.415 354.067 -431.624 354.085 -431.551 353.632C-431.486 353.229 -431.155 352.455 -430.815 351.942C-430.458 351.327 -430.248 351.309 -430.321 351.763C-430.386 352.166 -430.717 352.939 -431.058 353.453ZM-440.066 409.375C-440.228 408.78 -440.3 407.941 -440.235 407.538C-440.162 407.085 -439.969 407.168 -439.823 407.863C-439.661 408.458 -439.589 409.296 -439.654 409.699C-439.727 410.153 -439.92 410.07 -440.066 409.375ZM-432.285 355.943C-432.411 355.768 -432.389 355.306 -432.181 354.978C-431.965 354.599 -431.839 354.774 -431.928 355.329C-431.967 355.891 -432.166 356.169 -432.285 355.943ZM-440.504 405.686C-440.666 405.091 -440.671 404.16 -440.582 403.606C-440.452 402.8 -440.359 402.866 -440.22 403.923C-439.943 405.725 -440.154 407.035 -440.504 405.686ZM-433.112 357.877C-433.239 357.702 -433.216 357.24 -433.009 356.912C-432.793 356.533 -432.666 356.709 -432.755 357.263C-432.794 357.825 -432.994 358.103 -433.112 357.877ZM-433.94 359.811C-434.067 359.636 -434.044 359.174 -433.836 358.846C-433.62 358.467 -433.494 358.643 -433.583 359.197C-433.622 359.759 -433.822 360.037 -433.94 359.811ZM-440.82 401.242C-440.908 400.504 -440.93 399.363 -440.817 398.658C-440.638 397.549 -440.588 397.558 -440.455 398.975C-440.392 399.863 -440.369 401.004 -440.458 401.558C-440.588 402.364 -440.681 402.298 -440.82 401.242ZM-434.948 362.544C-434.991 362.175 -434.878 361.469 -434.704 361.032C-434.472 360.553 -434.42 360.871 -434.55 361.677C-434.688 362.534 -434.846 362.87 -434.948 362.544ZM-435.938 365.485C-435.981 365.116 -435.868 364.411 -435.694 363.974C-435.462 363.494 -435.41 363.813 -435.54 364.619C-435.678 365.475 -435.835 365.812 -435.938 365.485ZM-440.969 396.721C-441.013 396.352 -440.899 395.647 -440.726 395.209C-440.494 394.73 -440.442 395.048 -440.572 395.855C-440.71 396.711 -440.867 397.047 -440.969 396.721ZM-437.049 369.183C-437.069 368.663 -436.923 367.756 -436.725 367.168C-436.518 366.529 -436.483 366.948 -436.661 368.056C-436.79 369.173 -436.971 369.661 -437.049 369.183ZM-440.945 393.365C-440.964 392.845 -440.818 391.938 -440.62 391.35C-440.414 390.711 -440.378 391.13 -440.557 392.239C-440.685 393.355 -440.867 393.843 -440.945 393.365ZM-438.445 374.644C-438.416 373.821 -438.221 372.612 -437.998 371.873C-437.768 371.083 -437.773 371.754 -438.016 373.265C-438.26 374.777 -438.466 375.415 -438.445 374.644ZM-440.636 388.246C-440.607 387.424 -440.412 386.215 -440.19 385.475C-439.959 384.685 -439.964 385.357 -440.208 386.868C-440.451 388.379 -440.657 389.018 -440.636 388.246Z" fill="url(#paint35_linear_65_57)"/>
<path d="M8.45569 217.4C8.23187 216.227 6.01238 216.231 5.47367 217.333C4.8019 218.62 5.43459 219.498 6.98401 219.489C8.21543 219.532 8.76387 218.69 8.45569 217.4Z" fill="url(#paint36_linear_65_57)"/>
<path d="M0.486647 213.377C-0.953966 211.749 -3.28066 213.7 -2.01528 215.455C-1.46694 216.215 -1.12299 216.322 -0.353943 216.032C0.924569 215.463 1.26211 214.329 0.486647 213.377Z" fill="url(#paint37_linear_65_57)"/>
<path d="M49.4803 245.252C48.5393 244.687 47.6875 245.17 47.509 246.278C47.3061 247.538 48.08 248.179 49.107 247.569C50.1925 246.917 50.3791 245.758 49.4803 245.252Z" fill="url(#paint38_linear_65_57)"/>
<path d="M43.4663 240.303C42.9601 239.601 41.461 239.618 41.0959 240.283C40.5897 241.184 41.6766 242.444 42.7474 242.203C43.5505 242.022 43.9805 240.954 43.4663 240.303Z" fill="url(#paint39_linear_65_57)"/>
<path d="M35.8575 234.684C35.0868 234.663 34.6195 235.001 34.514 235.656C34.2706 237.168 36.2564 237.333 36.701 235.854C37.0142 234.87 36.8877 234.695 35.8575 234.684Z" fill="url(#paint40_linear_65_57)"/>
<path d="M29.7525 229.979C28.4466 228.477 26.6034 229.989 27.7844 231.626C28.5015 232.62 28.9703 232.593 29.7021 231.573C30.2181 230.933 30.2327 230.522 29.7525 229.979Z" fill="url(#paint41_linear_65_57)"/>
<path d="M22.3481 225.013C21.4493 224.507 20.1902 225.596 20.4222 226.719C20.5081 227.146 21.0127 227.538 21.4815 227.51C22.6205 227.486 23.2891 225.578 22.3481 225.013Z" fill="url(#paint42_linear_65_57)"/>
<defs>
<linearGradient id="paint0_linear_65_57" x1="125.849" y1="576.314" x2="67.0782" y2="566.847" gradientUnits="userSpaceOnUse">
<stop stop-color="#006DAD"/>
<stop offset="0.5" stop-color="#00B8F1"/>
<stop offset="1" stop-color="#00E6DC"/>
</linearGradient>
<linearGradient id="paint1_linear_65_57" x1="113.801" y1="436.748" x2="111.34" y2="436.352" gradientUnits="userSpaceOnUse">
<stop stop-color="#006DAD"/>
<stop offset="0.5" stop-color="#00B8F1"/>
<stop offset="1" stop-color="#00E6DC"/>
</linearGradient>
<linearGradient id="paint2_linear_65_57" x1="111.955" y1="448.419" x2="108.975" y2="447.939" gradientUnits="userSpaceOnUse">
<stop stop-color="#006DAD"/>
<stop offset="0.5" stop-color="#00B8F1"/>
<stop offset="1" stop-color="#00E6DC"/>
</linearGradient>
<linearGradient id="paint3_linear_65_57" x1="115.525" y1="422.382" x2="113.201" y2="422.008" gradientUnits="userSpaceOnUse">
<stop stop-color="#006DAD"/>
<stop offset="0.5" stop-color="#00B8F1"/>
<stop offset="1" stop-color="#00E6DC"/>
</linearGradient>
<linearGradient id="paint4_linear_65_57" x1="116.466" y1="414.006" x2="113.952" y2="413.601" gradientUnits="userSpaceOnUse">
<stop stop-color="#006DAD"/>
<stop offset="0.5" stop-color="#00B8F1"/>
<stop offset="1" stop-color="#00E6DC"/>
</linearGradient>
<linearGradient id="paint5_linear_65_57" x1="109.61" y1="456.611" x2="107.147" y2="456.214" gradientUnits="userSpaceOnUse">
<stop stop-color="#006DAD"/>
<stop offset="0.5" stop-color="#00B8F1"/>
<stop offset="1" stop-color="#00E6DC"/>
</linearGradient>
<linearGradient id="paint6_linear_65_57" x1="107.76" y1="464.851" x2="105" y2="464.406" gradientUnits="userSpaceOnUse">
<stop stop-color="#006DAD"/>
<stop offset="0.5" stop-color="#00B8F1"/>
<stop offset="1" stop-color="#00E6DC"/>
</linearGradient>
<linearGradient id="paint7_linear_65_57" x1="116.757" y1="405.476" x2="114.036" y2="405.038" gradientUnits="userSpaceOnUse">
<stop stop-color="#006DAD"/>
<stop offset="0.5" stop-color="#00B8F1"/>
<stop offset="1" stop-color="#00E6DC"/>
</linearGradient>
<linearGradient id="paint8_linear_65_57" x1="104.814" y1="472.861" x2="102.49" y2="472.487" gradientUnits="userSpaceOnUse">
<stop stop-color="#006DAD"/>
<stop offset="0.5" stop-color="#00B8F1"/>
<stop offset="1" stop-color="#00E6DC"/>
</linearGradient>
<linearGradient id="paint9_linear_65_57" x1="116.552" y1="396.96" x2="114.188" y2="396.579" gradientUnits="userSpaceOnUse">
<stop stop-color="#006DAD"/>
<stop offset="0.5" stop-color="#00B8F1"/>
<stop offset="1" stop-color="#00E6DC"/>
</linearGradient>
<linearGradient id="paint10_linear_65_57" x1="102.071" y1="480.85" x2="99.5718" y2="480.448" gradientUnits="userSpaceOnUse">
<stop stop-color="#006DAD"/>
<stop offset="0.5" stop-color="#00B8F1"/>
<stop offset="1" stop-color="#00E6DC"/>
</linearGradient>
<linearGradient id="paint11_linear_65_57" x1="116.403" y1="388.619" x2="113.913" y2="388.218" gradientUnits="userSpaceOnUse">
<stop stop-color="#006DAD"/>
<stop offset="0.5" stop-color="#00B8F1"/>
<stop offset="1" stop-color="#00E6DC"/>
</linearGradient>
<linearGradient id="paint12_linear_65_57" x1="98.7645" y1="488.662" x2="96.2874" y2="488.263" gradientUnits="userSpaceOnUse">
<stop stop-color="#006DAD"/>
<stop offset="0.5" stop-color="#00B8F1"/>
<stop offset="1" stop-color="#00E6DC"/>
</linearGradient>
<linearGradient id="paint13_linear_65_57" x1="115.706" y1="380.189" x2="113.207" y2="379.786" gradientUnits="userSpaceOnUse">
<stop stop-color="#006DAD"/>
<stop offset="0.5" stop-color="#00B8F1"/>
<stop offset="1" stop-color="#00E6DC"/>
</linearGradient>
<linearGradient id="paint14_linear_65_57" x1="95.4316" y1="496.331" x2="92.97" y2="495.934" gradientUnits="userSpaceOnUse">
<stop stop-color="#006DAD"/>
<stop offset="0.5" stop-color="#00B8F1"/>
<stop offset="1" stop-color="#00E6DC"/>
</linearGradient>
<linearGradient id="paint15_linear_65_57" x1="114.994" y1="371.894" x2="112.014" y2="371.414" gradientUnits="userSpaceOnUse">
<stop stop-color="#006DAD"/>
<stop offset="0.5" stop-color="#00B8F1"/>
<stop offset="1" stop-color="#00E6DC"/>
</linearGradient>
<linearGradient id="paint16_linear_65_57" x1="91.6374" y1="503.979" x2="89.1381" y2="503.577" gradientUnits="userSpaceOnUse">
<stop stop-color="#006DAD"/>
<stop offset="0.5" stop-color="#00B8F1"/>
<stop offset="1" stop-color="#00E6DC"/>
</linearGradient>
<linearGradient id="paint17_linear_65_57" x1="113.778" y1="363.428" x2="110.798" y2="362.948" gradientUnits="userSpaceOnUse">
<stop stop-color="#006DAD"/>
<stop offset="0.5" stop-color="#00B8F1"/>
<stop offset="1" stop-color="#00E6DC"/>
</linearGradient>
<linearGradient id="paint18_linear_65_57" x1="126.366" y1="278.375" x2="47.8588" y2="265.729" gradientUnits="userSpaceOnUse">
<stop stop-color="#006DAD"/>
<stop offset="0.5" stop-color="#00B8F1"/>
<stop offset="1" stop-color="#00E6DC"/>
</linearGradient>
<linearGradient id="paint19_linear_65_57" x1="87.8603" y1="511.371" x2="84.9427" y2="510.901" gradientUnits="userSpaceOnUse">
<stop stop-color="#006DAD"/>
<stop offset="0.5" stop-color="#00B8F1"/>
<stop offset="1" stop-color="#00E6DC"/>
</linearGradient>
<linearGradient id="paint20_linear_65_57" x1="111.974" y1="355.086" x2="109.253" y2="354.648" gradientUnits="userSpaceOnUse">
<stop stop-color="#006DAD"/>
<stop offset="0.5" stop-color="#00B8F1"/>
<stop offset="1" stop-color="#00E6DC"/>
</linearGradient>
<linearGradient id="paint21_linear_65_57" x1="83.553" y1="518.789" x2="80.573" y2="518.309" gradientUnits="userSpaceOnUse">
<stop stop-color="#006DAD"/>
<stop offset="0.5" stop-color="#00B8F1"/>
<stop offset="1" stop-color="#00E6DC"/>
</linearGradient>
<linearGradient id="paint22_linear_65_57" x1="109.676" y1="346.927" x2="107.463" y2="346.571" gradientUnits="userSpaceOnUse">
<stop stop-color="#006DAD"/>
<stop offset="0.5" stop-color="#00B8F1"/>
<stop offset="1" stop-color="#00E6DC"/>
</linearGradient>
<linearGradient id="paint23_linear_65_57" x1="64.6811" y1="618.697" x2="-33.366" y2="602.903" gradientUnits="userSpaceOnUse">
<stop stop-color="#006DAD"/>
<stop offset="0.5" stop-color="#00B8F1"/>
<stop offset="1" stop-color="#00E6DC"/>
</linearGradient>
<linearGradient id="paint24_linear_65_57" x1="78.8525" y1="525.786" x2="75.8726" y2="525.306" gradientUnits="userSpaceOnUse">
<stop stop-color="#006DAD"/>
<stop offset="0.5" stop-color="#00B8F1"/>
<stop offset="1" stop-color="#00E6DC"/>
</linearGradient>
<linearGradient id="paint25_linear_65_57" x1="107.684" y1="338.764" x2="105.047" y2="338.339" gradientUnits="userSpaceOnUse">
<stop stop-color="#006DAD"/>
<stop offset="0.5" stop-color="#00B8F1"/>
<stop offset="1" stop-color="#00E6DC"/>
</linearGradient>
<linearGradient id="paint26_linear_65_57" x1="73.6218" y1="532.554" x2="71.2326" y2="532.169" gradientUnits="userSpaceOnUse">
<stop stop-color="#006DAD"/>
<stop offset="0.5" stop-color="#00B8F1"/>
<stop offset="1" stop-color="#00E6DC"/>
</linearGradient>
<linearGradient id="paint27_linear_65_57" x1="105.08" y1="330.728" x2="102.598" y2="330.328" gradientUnits="userSpaceOnUse">
<stop stop-color="#006DAD"/>
<stop offset="0.5" stop-color="#00B8F1"/>
<stop offset="1" stop-color="#00E6DC"/>
</linearGradient>
<linearGradient id="paint28_linear_65_57" x1="68.6647" y1="539.374" x2="66.1509" y2="538.969" gradientUnits="userSpaceOnUse">
<stop stop-color="#006DAD"/>
<stop offset="0.5" stop-color="#00B8F1"/>
<stop offset="1" stop-color="#00E6DC"/>
</linearGradient>
<linearGradient id="paint29_linear_65_57" x1="102.261" y1="322.808" x2="99.2811" y2="322.328" gradientUnits="userSpaceOnUse">
<stop stop-color="#006DAD"/>
<stop offset="0.5" stop-color="#00B8F1"/>
<stop offset="1" stop-color="#00E6DC"/>
</linearGradient>
<linearGradient id="paint30_linear_65_57" x1="63.1904" y1="545.753" x2="60.7358" y2="545.357" gradientUnits="userSpaceOnUse">
<stop stop-color="#006DAD"/>
<stop offset="0.5" stop-color="#00B8F1"/>
<stop offset="1" stop-color="#00E6DC"/>
</linearGradient>
<linearGradient id="paint31_linear_65_57" x1="98.8693" y1="314.936" x2="96.37" y2="314.533" gradientUnits="userSpaceOnUse">
<stop stop-color="#006DAD"/>
<stop offset="0.5" stop-color="#00B8F1"/>
<stop offset="1" stop-color="#00E6DC"/>
</linearGradient>
<linearGradient id="paint32_linear_65_57" x1="57.5606" y1="552.047" x2="55.0787" y2="551.647" gradientUnits="userSpaceOnUse">
<stop stop-color="#006DAD"/>
<stop offset="0.5" stop-color="#00B8F1"/>
<stop offset="1" stop-color="#00E6DC"/>
</linearGradient>
<linearGradient id="paint33_linear_65_57" x1="51.4625" y1="557.982" x2="48.9632" y2="557.579" gradientUnits="userSpaceOnUse">
<stop stop-color="#006DAD"/>
<stop offset="0.5" stop-color="#00B8F1"/>
<stop offset="1" stop-color="#00E6DC"/>
</linearGradient>
<linearGradient id="paint34_linear_65_57" x1="45.3613" y1="563.766" x2="42.8712" y2="563.365" gradientUnits="userSpaceOnUse">
<stop stop-color="#006DAD"/>
<stop offset="0.5" stop-color="#00B8F1"/>
<stop offset="1" stop-color="#00E6DC"/>
</linearGradient>
<linearGradient id="paint35_linear_65_57" x1="47.3525" y1="399.326" x2="-431.09" y2="322.256" gradientUnits="userSpaceOnUse">
<stop stop-color="#006DAD"/>
<stop offset="0.5" stop-color="#00B8F1"/>
<stop offset="1" stop-color="#00E6DC"/>
</linearGradient>
<linearGradient id="paint36_linear_65_57" x1="8.53511" y1="218.256" x2="5.27578" y2="217.731" gradientUnits="userSpaceOnUse">
<stop stop-color="#006DAD"/>
<stop offset="0.5" stop-color="#00B8F1"/>
<stop offset="1" stop-color="#00E6DC"/>
</linearGradient>
<linearGradient id="paint37_linear_65_57" x1="0.866518" y1="214.751" x2="-2.37178" y2="214.229" gradientUnits="userSpaceOnUse">
<stop stop-color="#006DAD"/>
<stop offset="0.5" stop-color="#00B8F1"/>
<stop offset="1" stop-color="#00E6DC"/>
</linearGradient>
<linearGradient id="paint38_linear_65_57" x1="49.9919" y1="246.641" x2="47.5148" y2="246.242" gradientUnits="userSpaceOnUse">
<stop stop-color="#006DAD"/>
<stop offset="0.5" stop-color="#00B8F1"/>
<stop offset="1" stop-color="#00E6DC"/>
</linearGradient>
<linearGradient id="paint39_linear_65_57" x1="43.6653" y1="241.214" x2="40.9543" y2="240.777" gradientUnits="userSpaceOnUse">
<stop stop-color="#006DAD"/>
<stop offset="0.5" stop-color="#00B8F1"/>
<stop offset="1" stop-color="#00E6DC"/>
</linearGradient>
<linearGradient id="paint40_linear_65_57" x1="36.7386" y1="235.939" x2="34.5259" y2="235.582" gradientUnits="userSpaceOnUse">
<stop stop-color="#006DAD"/>
<stop offset="0.5" stop-color="#00B8F1"/>
<stop offset="1" stop-color="#00E6DC"/>
</linearGradient>
<linearGradient id="paint41_linear_65_57" x1="30.0523" y1="231.081" x2="27.376" y2="230.65" gradientUnits="userSpaceOnUse">
<stop stop-color="#006DAD"/>
<stop offset="0.5" stop-color="#00B8F1"/>
<stop offset="1" stop-color="#00E6DC"/>
</linearGradient>
<linearGradient id="paint42_linear_65_57" x1="22.7385" y1="226.373" x2="20.4471" y2="226.004" gradientUnits="userSpaceOnUse">
<stop stop-color="#006DAD"/>
<stop offset="0.5" stop-color="#00B8F1"/>
<stop offset="1" stop-color="#00E6DC"/>
</linearGradient>
</defs>
</svg>
