<?xml version="1.0" encoding="UTF-8"?>
<!DOCTYPE svg PUBLIC "-//W3C//DTD SVG 1.1//EN" "http://www.w3.org/Graphics/SVG/1.1/DTD/svg11.dtd">
<!-- Creator: CorelDRAW -->
<svg xmlns="http://www.w3.org/2000/svg" xml:space="preserve" width="211.667mm" height="76.1998mm" version="1.1" style="shape-rendering:geometricPrecision; text-rendering:geometricPrecision; image-rendering:optimizeQuality; fill-rule:evenodd; clip-rule:evenodd"
viewBox="0 0 21166.66 7619.98"
 xmlns:xlink="http://www.w3.org/1999/xlink"
 xmlns:xodm="http://www.corel.com/coreldraw/odm/2003">
 <defs>
  <style type="text/css">
   <![CDATA[
    .fil0 {fill:white}
    .fil1 {fill:white;fill-rule:nonzero}
   ]]>
  </style>
 </defs>
 <g id="Capa_x0020_1">
  <metadata id="CorelCorpID_0Corel-Layer"/>
  <path class="fil0" d="M13256.51 3282.54c-54.82,11.94 -74.57,61.44 -108.17,97.08 -30.36,32.23 -66.66,66.66 -94.85,108.16 -28.5,81.82 142.65,406.09 -62.28,761.54 -114.24,198.13 -244.54,352.39 -462,444.15 -248.17,104.71 -474.09,125.91 -745.27,28.29 -116.57,-41.96 -205.09,-99.68 -288.56,-165.24 -250.2,-196.51 -413.59,-624.73 -307.88,-990.5 36.8,-127.35 80.96,-210.57 147.14,-305.6 77.58,-111.39 108.08,-150.87 227.97,-225.36 354.58,-220.31 656.16,-247.4 1054.32,-52.94 77.97,38.07 93.19,19.31 143.1,-26.8 102.11,-94.3 240.86,-96.09 -25,-235.04 -213.12,-111.39 -433.06,-182.24 -688.11,-155.99 -393.21,40.5 -672.39,195.22 -875.06,425.62 -151.5,172.2 -279.23,458.99 -296.72,701.1 -75.54,1046.08 994.52,1717.04 1900.55,1189.63 206.44,-120.16 438.37,-392 524.14,-634.48 50.18,-141.86 88.84,-327.96 76.38,-495.93 -8.07,-108.86 -68.45,-397.82 -119.7,-467.69z"/>
  <path class="fil0" d="M14222.64 3977.54c36.25,-21.43 105.2,-12.86 167.58,-12.14 164.26,1.88 297.4,11 402.83,133.91 53.42,62.27 89.68,165.46 84.74,271.96 -6,130.15 -52.49,184.38 -112.46,255.15 -91.68,108.17 -273.67,118.81 -422.85,115.35 -64.81,-1.5 -119.97,12.56 -129,-47.99 -13.06,-87.47 -14.39,-667.37 9.16,-716.24zm-293.81 285.93l3.27 696.28c232.57,5.81 538.18,26.18 762.71,-22.46 111.99,-24.26 177.7,-76.41 254.53,-126.63 162.29,-106.07 227.51,-345.23 204.86,-547.48 -11.77,-105.18 -54.78,-205.53 -99.26,-270.59 -56.66,-82.89 -105.91,-118.65 -206.1,-176.26 -184.95,-106.33 -620.83,-95.41 -865.31,-82.38 -77.42,4.11 -53.28,53.61 -53.73,135.7 -0.72,131.3 -1.03,262.53 -0.97,393.82z"/>
  <path class="fil0" d="M12051.87 3843.18c-27.3,-35.81 -48.28,-68.55 -74.73,-114.55l-224.3 -347.67c-58.49,14.82 -149.63,91.49 -206.94,126.59 -285.43,174.72 -188.58,166.38 -9.88,363.85l445.77 509.36c47.41,51.15 36.87,66.91 93.27,109.61 37.66,-40.01 54.05,-79.17 82.55,-132.56l171.24 -270.02c195.27,-294.73 219.04,-318.73 428.22,-574.54 134.99,-165.09 275.51,-321.09 443.38,-451.96 131.65,-102.61 166.35,-187.12 430.83,-356.3 71.7,-45.86 106.8,-30.73 104.32,-124.78 -88.55,4.14 -180.42,70.42 -251.74,108.14 -44.49,23.52 -69.01,43.46 -111.51,67.24l-856.6 623.94c-102.12,115.63 -172.54,149.15 -285.27,275.47 -46.93,52.59 -114.35,145.88 -178.61,188.18z"/>
  <path class="fil0" d="M16776.99 4081.9c56.31,-13.35 139.64,-79.15 158.49,-113.55 66.99,-122.36 -252.22,-282.83 -528.68,-266.03 -623.38,37.89 -739.57,685.74 -506.93,1019.92 57.07,81.96 110.77,132.73 209.76,185.28 257.72,136.8 631.56,94.87 829.16,-75.11 22.69,-117.63 10.94,-363.63 8.47,-495.15l-255.44 5.1c-16.37,205.59 96.65,446.87 -261.23,407.04 -183.69,-20.45 -308.54,-132.55 -350.28,-302.82 -77.33,-315.41 192.11,-548.48 487.65,-478.36 147.92,35.1 163.18,86.88 209.03,113.68z"/>
  <path class="fil0" d="M19013.21 4484.86c-0.61,-61.16 137,-413.34 186.35,-445.71 31.03,39.27 164.46,382.55 173.31,447.78l-359.66 -2.07zm150.55 218.56c441.02,-6.14 259.57,-14.11 430.76,264.96l276.09 2.99c-15.62,-80.01 -220.48,-536.64 -266.78,-634.46 -91.7,-193.67 -171.15,-430.59 -271.54,-610.6 -65.23,-14.8 -220.35,-9.35 -281.63,3.7l-22.82 40.7c-125.48,312.95 -259.99,583.24 -382.19,882.39 -35.79,87.6 -112.25,231.05 -129.92,313.18l276.21 -12.5 113.59 -244.92 258.23 -5.44z"/>
  <path class="fil0" d="M1807.04 3190.19c-4.2,-59.09 1.35,-340.57 20.28,-356.37 44.68,-37.29 311.79,-8.51 356.21,31.84 79.99,72.65 49.77,238.63 -10.23,326.84 -41.19,60.54 -61.06,57.42 -158.44,56 -61.53,-0.9 -137.42,6.57 -192.16,-6.5l-15.66 -51.81zm-214.94 70.85c-0.41,121.04 10.52,386.35 -23.25,483.9 -87.62,34.49 -130.52,-14.7 -115.33,109.17 93.66,5.76 435.27,13.51 498.44,-10.77l3.02 -57.18c-144.85,-124.46 -148.05,105.16 -145.97,-406.85 258.87,-30.12 241.97,-15.46 367.25,233.1 40.26,79.87 72.18,170.97 107.8,246.64 63.58,3.78 261.86,14.96 298.52,-17.99 12.29,-13.82 15.17,21.43 10.33,-25.14 -9.08,-87.44 -101.2,-12.17 -194.61,-198.47 -34.03,-67.88 -145.93,-237.63 -147.7,-308.68 58.58,-53.45 118.13,-78.09 160.17,-152.92 69.73,-124.11 36.2,-351.3 -139.33,-425.87 -134.73,-57.24 -579.01,-30.81 -758.26,-29.5 -52.2,0.4 -113.22,0.69 -64.49,63.68 104.21,134.68 144.98,-140.4 143.41,496.88z"/>
  <path class="fil0" d="M7679.69 3380.37c-7.36,-118.02 -1.06,-242.18 33.09,-352.66 37.89,-122.58 78.76,-169.81 209.91,-194.69 455.72,-86.45 481.58,448.88 389.34,699.34 -40.36,109.59 -84.2,172.62 -208.07,196.24 -256.33,48.9 -409.45,-110.68 -424.27,-348.23zm271.24 -705.54c-348.87,53.47 -510.82,335.66 -492.59,670.23 4.35,80.16 19.41,169.3 50.85,233.23 63.92,130.05 163.7,240.55 305.58,279.74 437.22,120.78 782.28,-196.15 757.09,-656.72 -18.32,-334.94 -265.48,-580.96 -620.93,-526.48z"/>
  <path class="fil0" d="M3146.04 2837.09c268.25,-47.85 398.47,105.66 422.35,351.9 10.22,105.42 -2.44,261.97 -40.61,355.6 -47.46,116.46 -75.65,161.83 -207.89,185.62 -259.66,46.7 -403,-114.04 -424.7,-348.94 -19.39,-210.08 3.68,-500.09 250.85,-544.18zm36.89 -166.11c-243.55,27.51 -394.7,170.95 -468.24,394.32 -80.28,243.89 -34.6,498.9 133.85,686.65 132.73,147.95 588.17,232.03 812.59,-85.93 85.49,-121.12 142.31,-269.47 134.2,-453.1 -14.4,-326.67 -251.55,-582.73 -612.4,-541.94z"/>
  <path class="fil0" d="M705.24 2828.18c39.48,-13.99 176.7,-13.44 222.07,-5.02 146.43,27.25 177.15,180.55 161.99,303.56 -19.79,160.68 -96.77,212.85 -255.99,210.42 -115.45,-1.75 -161.08,-11.72 -168.83,-75.32 -12.59,-103.35 2.44,-252.43 6.3,-359.48 1.97,-54.62 -7.73,-59.2 34.46,-74.16zm-408.87 -49.7l146.87 44.68c24.05,170.01 16.25,623.22 6.81,832.19 -4.89,108.2 -1.96,101.83 -153.68,113.51l0 83.51 477.5 5.42c74.08,0.98 100.02,10.22 102.33,-58.55 -55.2,-58.49 -138.82,-22.42 -203.07,-90.51l-12.74 -245.32c204.27,-16.96 370.24,21.58 509.1,-92.88 98.67,-81.31 201.28,-257.02 119.3,-445.26 -32.42,-74.42 -83.57,-133.78 -129.7,-169.32 -132.43,-102.02 -702.39,-67 -862.72,-49.87l0 72.4z"/>
  <path class="fil0" d="M5228.41 2841.54c39.86,84.03 24.24,764.92 7.29,895.85 -47.81,19.48 -173.68,34.6 -125.97,102.99 13.33,12.5 -9.67,12.54 42.66,18.11 14.64,1.57 44.57,-0.32 60.68,-0.58 39.82,-0.65 79.56,-0.45 119.38,-0.32 237.72,0.77 490.86,10.58 726.98,-2.9 12.78,-66.94 5.61,-143.1 4.14,-211.8 -2.55,-118.75 10.91,-121.02 -110.56,-113.46 -44.17,54.38 -45.87,152.72 -85.5,206.22 -101.82,21.41 -297.32,15.01 -392.17,-8.62 -21.1,-106.18 -15.73,-267.19 -8.7,-382.61l369.65 -4.33 14.67 -113.64 -382.38 6.09c-18.85,-95.21 -2.6,-312.5 5.15,-416.94 67.97,-3.09 136.74,-0.13 204.82,1.29 50.33,1.05 141.19,0.26 183.25,24.32l22.96 173.07c49.12,6.62 87.79,13.57 128.73,-1.83 12.66,-10.47 76.93,-291.42 20.07,-310 -17,-5.55 -11.29,-5.31 -31.95,-7.01l-418.55 2.56c-134.87,-0.77 -344.42,-10.8 -471.63,6.89 -25.04,141.28 67.04,49.48 116.98,136.65z"/>
  <path class="fil0" d="M18210.46 4960.99c20.69,-35.68 14.01,-64.72 14.15,-112.77 0.12,-35.82 0.3,-71.57 0.47,-107.39l0.69 -620.56c-0.08,-135.04 -15.6,-149.1 41.71,-155.69 63.06,-7.23 218.1,5.15 352.9,-7.62l-0.27 -212.15c-73.13,-23.94 -888.94,-10.51 -1062.04,-2.87 -19.58,284.47 -25.07,223.38 281.1,225.35 139.13,0.9 108.33,3.54 107.63,152.98l10.42 834.18c45.61,25.84 186.09,8.86 253.24,6.54z"/>
  <path class="fil0" d="M7235.45 3482.25c-249.06,-36.84 -75.51,165.76 -238.98,225.44 -229.99,83.99 -519.9,-53.65 -523,-422.78 -1.72,-204 74.42,-389.1 222.39,-440 76.76,-26.41 218.98,-26.3 294.99,-1.01 111.64,37.13 40.63,218.88 117.75,251.17 13.81,5.8 10.06,4.63 27.26,6.29 23.69,2.3 54.44,-3.61 73.98,-6.75l53.84 -286.48c-129.77,-157.12 -524.7,-187.1 -715.56,-62.07 -59.4,38.91 -87,44.87 -129.99,96.61 -136.1,163.79 -180.19,332.94 -151.83,556.66 22.41,176.84 124.21,360.12 276.89,429.01 181.4,81.87 417.25,61.09 586.69,-11.2 70,-29.86 115.18,-42.35 123.22,-114.22 7.45,-66.75 9.2,-172.72 -17.65,-220.67z"/>
  <path class="fil0" d="M20870.29 4961.76l0 -215.21c-104.37,-0.08 -548.27,11.38 -613.33,-12.08 -24.71,-115.68 -9.42,-365.06 -9.05,-494.86 0.35,-124.19 15.92,-388.91 -2.72,-501.56l-277.56 4.2 1.34 1225.43 901.32 -5.92z"/>
  <path class="fil0" d="M3959.82 2713.45c-38.79,91.33 107.46,60.41 132.5,141.72 15.78,51.33 55.18,830.83 -30.38,889.35l-85.96 32.91 -8.01 77.11c99.2,9.42 478.95,9.89 555.01,-6.49l7.23 -58.85c-28.63,-19.63 -53.27,-27.36 -96.31,-35.72 -16.73,-3.24 -33.49,-5.31 -49.93,-9.98 -103.75,-29.41 -73.91,-208.46 -61.68,-357.03 7.78,-3.63 -10.06,-13.4 67.01,-10.82 117.17,3.92 175.57,13.05 297.68,3.93 15.67,-42.11 28.24,-75.21 20.26,-124.63l-385.69 -6.73c-11.66,-88.01 -6.64,-346.28 15.13,-421.05 76.17,-31.53 290.15,-8.61 380.99,9.55 25.53,120.05 -8.35,212.87 149.36,183.9 37.02,-59.03 45.26,-247.48 34.95,-321.77 -20.28,-2.08 -891.19,-14.78 -942.16,14.6z"/>
  <path class="fil0" d="M14167.96 2869.26c39.08,-33.59 185.48,19.98 215.42,52.46 51.53,55.9 28.25,168.59 -15.56,221.59 -31.6,38.21 -196.66,78.45 -215.61,10.17 -16.06,-57.86 -23.44,-250.55 15.75,-284.22zm-235.96 491.7c260.22,30.58 713.79,34.25 706.23,-338.81 -8.53,-421.45 -423.88,-340.16 -710.86,-344.8 -14.63,99.5 -10.34,583.04 4.63,683.61z"/>
  <path class="fil0" d="M16878.69 3361.78l215.26 1.31 3.51 -284.1c61.57,9.85 55.62,48.19 140.1,138.96 44.08,47.35 78.99,105.75 139.93,142.22 41.65,5.74 159.34,16.45 168.73,-18.09l7.62 -659.3 -220.33 -3.15 -2.12 300.91c-46.51,-2.63 -120.59,-134.4 -200.57,-216.17 -100.17,-102.41 -0.28,-80.97 -243.04,-85.37l-9.09 682.78z"/>
  <path class="fil0" d="M19717.4 3070.1c-67.31,-242.24 265.93,-283.67 294.16,-83.77 31.48,222.89 -237.47,287.86 -294.16,83.77zm43.35 -386.93c-234.61,52.45 -316.07,251.59 -262.42,445.86 54.35,196.81 269.58,295.92 466.66,241.11 323.27,-89.93 372.28,-501.43 106.48,-647.12 -98.92,-54.22 -192.25,-66.35 -310.72,-39.85z"/>
  <path class="fil0" d="M15330.82 4969.9c72.34,5.46 215.95,15.07 282.52,-7.47 -2.87,-410.04 7.14,-820.19 -1.59,-1230.13l-273.43 0.39c-18.87,59.81 -2.2,460.83 -2.71,614.32l-4.79 622.89z"/>
  <path class="fil0" d="M17167.74 4908.52c0.29,6.38 1.8,29.49 3,34.88 15.91,71.71 259.05,24.18 259.17,24.08 10.69,-15.7 7.97,7.24 12.81,-35.18l4.44 -585.29c0.59,-134.07 18.35,-507.36 -6.82,-615.99l-269.16 -4.91 -3.44 1182.41z"/>
  <path class="fil0" d="M15472.06 3197.22c-132.75,17.93 -199.66,-23.12 -311,-33.57 -25.5,61.24 -44.29,82.73 -31.11,169.87 452.85,204.36 749.16,-178.57 490.78,-336.39 -77.13,-47.11 -199.9,-46.46 -271.36,-94.1 -2.99,-119.64 147.86,-26.13 279.04,-28.64 71.1,-148.33 39.4,-195.28 -128.59,-205.61 -151.04,-9.29 -245.67,12.25 -330.19,94.73 -39.82,38.86 -52.59,84.38 -52.07,151.58 1.05,132.93 112.72,177.02 229.85,200.29 78.78,15.65 135.08,-1.07 124.65,81.84z"/>
  <path class="fil0" d="M18960.87 3356.62l208.16 5.32 219.15 -509.7c22.62,-51.08 75.87,-119.03 70.59,-170.97l-228.15 0.69c-7.44,34.43 -110.7,348.19 -150.41,377.41 -66.05,-67.28 -137.49,-357.82 -181.34,-373.69l-224.38 -9.58c6.31,57.11 249.61,638.72 286.38,680.52z"/>
  <path class="fil0" d="M17640.27 2857.63l196.42 13.78c26.3,120.95 -3.85,353.44 7.34,492.06 54.62,4.24 168.4,8.21 217.46,-8.77l7.8 -481.84 197.36 -8.55 0.6 -182.63 -615.74 -2.09 -11.24 178.04z"/>
  <path class="fil0" d="M15760.57 2855.44l192.8 12.59 10.74 489.94 224.13 6.95c-2.27,-100.9 -27.87,-415.21 5,-483.46 20.61,-23.55 125.87,-12.89 184.65,-20.11l8.87 -180.93 -619.29 -4.01 -6.9 179.03z"/>
  <polygon class="fil0" points="18368.91,3362.99 18596.72,3368.38 18599.25,2684.88 18373.4,2684.23 "/>
  <path class="fil0" d="M14767.08 3361.13l216.82 -0.25 7.6 -672.63 -225.26 -9.5c-10.91,60.68 -12.12,640.7 0.84,682.38z"/>
  <path class="fil0" d="M16506.82 2735.94l0.55 629.03c56.58,8.79 172.25,13.39 211.13,-9.17l14.11 -668.44c-53.78,-5.72 -97.01,-1.75 -147.23,-2.48 -69.58,-1 -78.79,-18.86 -78.56,51.06z"/>
  <path class="fil1" d="M423.33 4684.16l0 -266.6 128.34 0c24.89,0 46.41,4.07 64.56,12.19 18.15,8.13 32.18,19.74 42.08,34.85 9.91,15.11 14.86,32.94 14.86,53.51 0,20.57 -4.95,38.34 -14.86,53.32 -9.9,14.98 -23.93,26.59 -42.08,34.85 -18.15,8.25 -39.67,12.37 -64.56,12.37l-78.45 0 39.99 -38.46 0 103.97 -89.88 0zm89.88 -94.07l-39.99 -40.75 72.74 0c12.44,0 21.65,-2.79 27.61,-8.38 5.97,-5.59 8.95,-13.2 8.95,-22.85 0,-9.65 -2.98,-17.27 -8.95,-22.85 -5.96,-5.59 -15.17,-8.38 -27.61,-8.38l-72.74 0 39.99 -40.75 0 143.96z"/>
  <path id="_1" class="fil1" d="M702.49 4684.16l0 -266.6 128.34 0c24.89,0 46.41,4.07 64.56,12.19 18.15,8.13 32.18,19.74 42.08,34.85 9.91,15.11 14.86,32.94 14.86,53.51 0,20.57 -4.95,38.27 -14.86,53.13 -9.9,14.85 -23.93,26.21 -42.08,34.08 -18.15,7.87 -39.67,11.81 -64.56,11.81l-78.45 0 39.99 -36.94 0 103.97 -89.88 0zm159.57 0l-65.5 -97.12 95.21 0 66.27 97.12 -95.98 0zm-69.69 -94.07l-39.99 -40.75 72.74 0c12.44,0 21.65,-2.79 27.61,-8.38 5.97,-5.59 8.95,-13.2 8.95,-22.85 0,-9.65 -2.98,-17.27 -8.95,-22.85 -5.96,-5.59 -15.17,-8.38 -27.61,-8.38l-72.74 0 39.99 -40.75 0 143.96z"/>
  <path id="_2" class="fil1" d="M1125.99 4690.25c-21.58,0 -41.58,-3.42 -59.98,-10.28 -18.41,-6.85 -34.34,-16.57 -47.8,-29.13 -13.46,-12.57 -23.93,-27.36 -31.42,-44.37 -7.49,-17.01 -11.24,-35.55 -11.24,-55.61 0,-20.31 3.81,-38.84 11.43,-55.6 7.62,-16.76 18.09,-31.49 31.42,-44.18 13.33,-12.7 29.2,-22.47 47.61,-29.33 18.4,-6.85 38.4,-10.28 59.98,-10.28 21.84,0 41.89,3.43 60.17,10.28 18.29,6.86 34.09,16.63 47.42,29.33 13.33,12.69 23.8,27.42 31.42,44.18 7.62,16.76 11.43,35.29 11.43,55.6 0,20.06 -3.75,38.6 -11.24,55.61 -7.49,17.01 -17.96,31.8 -31.42,44.37 -13.46,12.56 -29.32,22.28 -47.61,29.13 -18.28,6.86 -38.33,10.28 -60.17,10.28zm-0.38 -72.74c8.63,0 16.57,-1.52 23.8,-4.57 7.24,-3.05 13.59,-7.43 19.05,-13.14 5.45,-5.71 9.71,-12.69 12.75,-20.95 3.05,-8.25 4.57,-17.58 4.57,-27.99 0,-10.41 -1.52,-19.74 -4.57,-27.99 -3.04,-8.25 -7.3,-15.23 -12.75,-20.95 -5.46,-5.71 -11.75,-10.09 -18.86,-13.14 -7.11,-3.04 -14.98,-4.57 -23.61,-4.57 -8.38,0 -16.19,1.53 -23.42,4.57 -7.24,3.05 -13.59,7.43 -19.04,13.14 -5.46,5.72 -9.72,12.7 -12.76,20.95 -3.05,8.25 -4.57,17.58 -4.57,27.99 0,10.41 1.52,19.74 4.57,27.99 3.04,8.26 7.3,15.24 12.76,20.95 5.45,5.71 11.74,10.09 18.85,13.14 7.11,3.05 14.85,4.57 23.23,4.57z"/>
  <path id="_3" class="fil1" d="M1447.05 4690.25c-21.33,0 -41.07,-3.36 -59.23,-10.09 -18.15,-6.73 -33.89,-16.31 -47.22,-28.75 -13.33,-12.44 -23.68,-27.17 -31.04,-44.18 -7.36,-17.01 -11.05,-35.8 -11.05,-56.37 0,-20.56 3.69,-39.35 11.05,-56.36 7.36,-17.01 17.71,-31.74 31.04,-44.18 13.33,-12.44 29.07,-22.03 47.22,-28.76 18.16,-6.72 37.9,-10.09 59.23,-10.09 26.15,0 49.32,4.57 69.5,13.71 20.19,9.14 36.88,22.35 50.08,39.61l-56.74 50.65c-7.87,-9.9 -16.57,-17.58 -26.09,-23.04 -9.52,-5.46 -20.25,-8.19 -32.18,-8.19 -9.4,0 -17.9,1.53 -25.52,4.57 -7.62,3.05 -14.16,7.49 -19.61,13.33 -5.46,5.84 -9.72,12.89 -12.76,21.14 -3.05,8.25 -4.57,17.46 -4.57,27.61 0,10.16 1.52,19.36 4.57,27.61 3.04,8.26 7.3,15.3 12.76,21.14 5.45,5.84 11.99,10.28 19.61,13.33 7.62,3.05 16.12,4.57 25.52,4.57 11.93,0 22.66,-2.73 32.18,-8.19 9.52,-5.46 18.22,-13.14 26.09,-23.04l56.74 50.65c-13.2,17.02 -29.89,30.16 -50.08,39.42 -20.18,9.27 -43.35,13.9 -69.5,13.9z"/>
  <path id="_4" class="fil1" d="M1716.3 4690.25c-40.87,0 -72.74,-11.04 -95.59,-33.13 -22.85,-22.09 -34.28,-53.07 -34.28,-92.93l0 -146.63 89.88 0 0 143.97c0,20.31 3.69,34.72 11.05,43.22 7.36,8.51 17.26,12.76 29.7,12.76 12.7,0 22.67,-4.25 29.9,-12.76 7.24,-8.5 10.86,-22.91 10.86,-43.22l0 -143.97 88.35 0 0 146.63c0,39.86 -11.42,70.84 -34.27,92.93 -22.85,22.09 -54.72,33.13 -95.6,33.13z"/>
  <path id="_5" class="fil1" d="M1887.31 4684.16l0 -266.6 128.34 0c24.89,0 46.41,4.07 64.56,12.19 18.15,8.13 32.18,19.74 42.08,34.85 9.91,15.11 14.86,32.94 14.86,53.51 0,20.57 -4.95,38.27 -14.86,53.13 -9.9,14.85 -23.93,26.21 -42.08,34.08 -18.15,7.87 -39.67,11.81 -64.56,11.81l-78.45 0 39.99 -36.94 0 103.97 -89.88 0zm159.57 0l-65.5 -97.12 95.21 0 66.27 97.12 -95.98 0zm-69.69 -94.07l-39.99 -40.75 72.74 0c12.44,0 21.65,-2.79 27.61,-8.38 5.97,-5.59 8.95,-13.2 8.95,-22.85 0,-9.65 -2.98,-17.27 -8.95,-22.85 -5.96,-5.59 -15.17,-8.38 -27.61,-8.38l-72.74 0 39.99 -40.75 0 143.96z"/>
  <path id="_6" class="fil1" d="M2142.09 4684.16l116.54 -266.6 88.36 0 116.54 266.6 -92.93 0 -86.07 -223.94 35.04 0 -86.07 223.94 -91.41 0zm69.32 -46.46l22.85 -64.75 122.63 0 22.85 64.75 -168.33 0z"/>
  <path id="_7" class="fil1" d="M2478.01 4684.16l0 -266.6 131.39 0c29.71,0 55.86,5.4 78.46,16.19 22.59,10.79 40.24,26.09 52.93,45.89 12.7,19.81 19.05,43.55 19.05,71.22 0,27.42 -6.35,51.1 -19.05,71.03 -12.69,19.93 -30.34,35.29 -52.93,46.08 -22.6,10.79 -48.75,16.19 -78.46,16.19l-131.39 0zm89.88 -70.08l37.7 0c12.95,0 24.12,-2.41 33.52,-7.23 9.39,-4.83 16.76,-12 22.09,-21.52 5.33,-9.52 8,-21.01 8,-34.47 0,-13.71 -2.67,-25.26 -8,-34.65 -5.33,-9.4 -12.7,-16.51 -22.09,-21.33 -9.4,-4.83 -20.57,-7.24 -33.52,-7.24l-37.7 0 0 126.44z"/>
  <path id="_8" class="fil1" d="M2920.17 4690.25c-40.87,0 -72.74,-11.04 -95.59,-33.13 -22.85,-22.09 -34.28,-53.07 -34.28,-92.93l0 -146.63 89.88 0 0 143.97c0,20.31 3.69,34.72 11.05,43.22 7.36,8.51 17.26,12.76 29.7,12.76 12.7,0 22.67,-4.25 29.9,-12.76 7.24,-8.5 10.86,-22.91 10.86,-43.22l0 -143.97 88.35 0 0 146.63c0,39.86 -11.42,70.84 -34.27,92.93 -22.85,22.09 -54.72,33.13 -95.6,33.13z"/>
  <path id="_9" class="fil1" d="M3091.18 4684.16l0 -266.6 128.34 0c24.89,0 46.41,4.07 64.56,12.19 18.15,8.13 32.18,19.74 42.08,34.85 9.91,15.11 14.86,32.94 14.86,53.51 0,20.57 -4.95,38.27 -14.86,53.13 -9.9,14.85 -23.93,26.21 -42.08,34.08 -18.15,7.87 -39.67,11.81 -64.56,11.81l-78.45 0 39.99 -36.94 0 103.97 -89.88 0zm159.57 0l-65.5 -97.12 95.21 0 66.27 97.12 -95.98 0zm-69.69 -94.07l-39.99 -40.75 72.74 0c12.44,0 21.65,-2.79 27.61,-8.38 5.97,-5.59 8.95,-13.2 8.95,-22.85 0,-9.65 -2.98,-17.27 -8.95,-22.85 -5.96,-5.59 -15.17,-8.38 -27.61,-8.38l-72.74 0 39.99 -40.75 0 143.96z"/>
  <path id="_10" class="fil1" d="M3374.91 4684.16l0 -266.6 89.88 0 0 266.6 -89.88 0zm4.95 -288.3l50.27 -60.94 81.88 0 -75.02 60.94 -57.13 0z"/>
  <path id="_11" class="fil1" d="M3479.26 4684.16l116.54 -266.6 88.36 0 116.54 266.6 -92.93 0 -86.07 -223.94 35.04 0 -86.07 223.94 -91.41 0zm69.32 -46.46l22.85 -64.75 122.63 0 22.85 64.75 -168.33 0z"/>
  <path id="_12" class="fil1" d="M4013.23 4531.06l117.3 0 0 67.79 -117.3 0 0 -67.79zm6.09 153.1l-89.88 0 0 -266.6 216.7 0 0 67.8 -126.82 0 0 198.8z"/>
  <path id="_13" class="fil1" d="M4256.97 4516.59l118.83 0 0 64.74 -118.83 0 0 -64.74zm6.1 99.78l133.29 0 0 67.79 -221.65 0 0 -266.6 216.7 0 0 67.8 -128.34 0 0 131.01z"/>
  <path id="_14" class="fil1" d="M4431.02 4684.16l0 -266.6 131.39 0c29.71,0 55.86,5.4 78.46,16.19 22.59,10.79 40.24,26.09 52.93,45.89 12.7,19.81 19.05,43.55 19.05,71.22 0,27.42 -6.35,51.1 -19.05,71.03 -12.69,19.93 -30.34,35.29 -52.93,46.08 -22.6,10.79 -48.75,16.19 -78.46,16.19l-131.39 0zm89.88 -70.08l37.7 0c12.95,0 24.12,-2.41 33.52,-7.23 9.39,-4.83 16.76,-12 22.09,-21.52 5.33,-9.52 8,-21.01 8,-34.47 0,-13.71 -2.67,-25.26 -8,-34.65 -5.33,-9.4 -12.7,-16.51 -22.09,-21.33 -9.4,-4.83 -20.57,-7.24 -33.52,-7.24l-37.7 0 0 126.44z"/>
  <path id="_15" class="fil1" d="M4827.86 4516.59l118.83 0 0 64.74 -118.83 0 0 -64.74zm6.1 99.78l133.29 0 0 67.79 -221.65 0 0 -266.6 216.7 0 0 67.8 -128.34 0 0 131.01z"/>
  <path id="_16" class="fil1" d="M5001.91 4684.16l0 -266.6 128.34 0c24.89,0 46.41,4.07 64.56,12.19 18.15,8.13 32.18,19.74 42.08,34.85 9.91,15.11 14.86,32.94 14.86,53.51 0,20.57 -4.95,38.27 -14.86,53.13 -9.9,14.85 -23.93,26.21 -42.08,34.08 -18.15,7.87 -39.67,11.81 -64.56,11.81l-78.45 0 39.99 -36.94 0 103.97 -89.88 0zm159.57 0l-65.5 -97.12 95.21 0 66.27 97.12 -95.98 0zm-69.69 -94.07l-39.99 -40.75 72.74 0c12.44,0 21.65,-2.79 27.61,-8.38 5.97,-5.59 8.95,-13.2 8.95,-22.85 0,-9.65 -2.98,-17.27 -8.95,-22.85 -5.96,-5.59 -15.17,-8.38 -27.61,-8.38l-72.74 0 39.99 -40.75 0 143.96z"/>
  <path id="_17" class="fil1" d="M5256.69 4684.16l116.54 -266.6 88.36 0 116.54 266.6 -92.93 0 -86.07 -223.94 35.04 0 -86.07 223.94 -91.41 0zm69.32 -46.46l22.85 -64.75 122.63 0 22.85 64.75 -168.33 0z"/>
  <polygon id="_18" class="fil1" points="5592.61,4684.16 5592.61,4417.56 5682.49,4417.56 5682.49,4614.46 5802.84,4614.46 5802.84,4684.16 "/>
  <path id="_19" class="fil1" d="M423.33 5209.35l0 -266.6 131.39 0c29.71,0 55.86,5.4 78.46,16.19 22.59,10.79 40.24,26.09 52.93,45.89 12.7,19.81 19.05,43.55 19.05,71.22 0,27.42 -6.35,51.1 -19.05,71.03 -12.69,19.93 -30.34,35.29 -52.93,46.08 -22.6,10.79 -48.75,16.19 -78.46,16.19l-131.39 0zm89.88 -70.08l37.7 0c12.95,0 24.12,-2.41 33.52,-7.23 9.39,-4.83 16.76,-12 22.09,-21.52 5.33,-9.52 8,-21.01 8,-34.47 0,-13.71 -2.67,-25.26 -8,-34.65 -5.33,-9.4 -12.7,-16.51 -22.09,-21.33 -9.4,-4.83 -20.57,-7.24 -33.52,-7.24l-37.7 0 0 126.44z"/>
  <path id="_20" class="fil1" d="M820.17 5041.78l118.83 0 0 64.74 -118.83 0 0 -64.74zm6.1 99.78l133.29 0 0 67.79 -221.65 0 0 -266.6 216.7 0 0 67.8 -128.34 0 0 131.01z"/>
  <polygon id="_21" class="fil1" points="994.22,5209.35 994.22,4942.75 1084.1,4942.75 1084.1,5139.65 1204.45,5139.65 1204.45,5209.35 "/>
  <path id="_22" class="fil1" d="M1481.33 5215.44c-21.33,0 -41.07,-3.36 -59.23,-10.09 -18.15,-6.73 -33.89,-16.31 -47.22,-28.75 -13.33,-12.44 -23.68,-27.17 -31.04,-44.18 -7.36,-17.01 -11.05,-35.8 -11.05,-56.37 0,-20.56 3.69,-39.35 11.05,-56.36 7.36,-17.01 17.71,-31.74 31.04,-44.18 13.33,-12.44 29.07,-22.03 47.22,-28.76 18.16,-6.72 37.9,-10.09 59.23,-10.09 26.15,0 49.32,4.57 69.5,13.71 20.19,9.14 36.88,22.35 50.08,39.61l-56.74 50.65c-7.87,-9.9 -16.57,-17.58 -26.09,-23.04 -9.52,-5.46 -20.25,-8.19 -32.18,-8.19 -9.4,0 -17.9,1.53 -25.52,4.57 -7.62,3.05 -14.16,7.49 -19.61,13.33 -5.46,5.84 -9.72,12.89 -12.76,21.14 -3.05,8.25 -4.57,17.46 -4.57,27.61 0,10.16 1.52,19.36 4.57,27.61 3.04,8.26 7.3,15.3 12.76,21.14 5.45,5.84 11.99,10.28 19.61,13.33 7.62,3.05 16.12,4.57 25.52,4.57 11.93,0 22.66,-2.73 32.18,-8.19 9.52,-5.46 18.22,-13.14 26.09,-23.04l56.74 50.65c-13.2,17.02 -29.89,30.16 -50.08,39.42 -20.18,9.27 -43.35,13.9 -69.5,13.9z"/>
  <path id="_23" class="fil1" d="M1760.87 5215.44c-21.58,0 -41.58,-3.42 -59.98,-10.28 -18.41,-6.85 -34.34,-16.57 -47.8,-29.13 -13.46,-12.57 -23.93,-27.36 -31.42,-44.37 -7.49,-17.01 -11.24,-35.55 -11.24,-55.61 0,-20.31 3.81,-38.84 11.43,-55.6 7.62,-16.76 18.09,-31.49 31.42,-44.18 13.33,-12.7 29.2,-22.47 47.61,-29.33 18.4,-6.85 38.4,-10.28 59.98,-10.28 21.84,0 41.89,3.43 60.17,10.28 18.29,6.86 34.09,16.63 47.42,29.33 13.33,12.69 23.8,27.42 31.42,44.18 7.62,16.76 11.43,35.29 11.43,55.6 0,20.06 -3.75,38.6 -11.24,55.61 -7.49,17.01 -17.96,31.8 -31.42,44.37 -13.46,12.56 -29.32,22.28 -47.61,29.13 -18.28,6.86 -38.33,10.28 -60.17,10.28zm-0.38 -72.74c8.63,0 16.57,-1.52 23.8,-4.57 7.24,-3.05 13.59,-7.43 19.05,-13.14 5.45,-5.71 9.71,-12.69 12.75,-20.95 3.05,-8.25 4.57,-17.58 4.57,-27.99 0,-10.41 -1.52,-19.74 -4.57,-27.99 -3.04,-8.25 -7.3,-15.23 -12.75,-20.95 -5.46,-5.71 -11.75,-10.09 -18.86,-13.14 -7.11,-3.04 -14.98,-4.57 -23.61,-4.57 -8.38,0 -16.19,1.53 -23.42,4.57 -7.24,3.05 -13.59,7.43 -19.04,13.14 -5.46,5.72 -9.72,12.7 -12.76,20.95 -3.05,8.25 -4.57,17.58 -4.57,27.99 0,10.41 1.52,19.74 4.57,27.99 3.04,8.26 7.3,15.24 12.76,20.95 5.45,5.71 11.74,10.09 18.85,13.14 7.11,3.05 14.85,4.57 23.23,4.57z"/>
  <polygon id="_24" class="fil1" points="1944.06,5209.35 1944.06,4942.75 2017.94,4942.75 2153.53,5105 2119.25,5105 2119.25,4942.75 2206.84,4942.75 2206.84,5209.35 2132.96,5209.35 1997.38,5047.11 2031.65,5047.11 2031.65,5209.35 "/>
  <path id="_25" class="fil1" d="M2349.66 5215.44c-22.34,0 -43.92,-2.54 -64.74,-7.61 -20.82,-5.08 -37.96,-11.68 -51.42,-19.81l28.95 -65.5c12.69,7.36 26.85,13.26 42.46,17.71 15.62,4.44 30.79,6.66 45.51,6.66 8.63,0 15.43,-0.57 20.38,-1.71 4.95,-1.15 8.57,-2.8 10.85,-4.95 2.29,-2.16 3.43,-4.76 3.43,-7.81 0,-4.83 -2.67,-8.63 -8,-11.43 -5.33,-2.79 -12.38,-5.14 -21.14,-7.04 -8.76,-1.91 -18.34,-3.94 -28.75,-6.1 -10.41,-2.15 -20.88,-5.01 -31.42,-8.57 -10.54,-3.55 -20.19,-8.25 -28.94,-14.09 -8.76,-5.84 -15.81,-13.52 -21.14,-23.04 -5.33,-9.52 -8,-21.39 -8,-35.61 0,-16.5 4.63,-31.55 13.9,-45.13 9.27,-13.58 23.11,-24.44 41.51,-32.56 18.41,-8.13 41.33,-12.19 68.75,-12.19 18.02,0 35.8,1.91 53.32,5.71 17.52,3.81 33.26,9.65 47.22,17.52l-27.04 65.13c-13.2,-6.6 -25.96,-11.55 -38.27,-14.85 -12.32,-3.31 -24.31,-4.96 -35.99,-4.96 -8.64,0 -15.49,0.77 -20.57,2.29 -5.08,1.52 -8.7,3.55 -10.85,6.09 -2.16,2.54 -3.24,5.33 -3.24,8.38 0,4.57 2.66,8.19 8,10.86 5.33,2.66 12.37,4.88 21.13,6.66 8.76,1.78 18.41,3.68 28.95,5.71 10.53,2.03 21.01,4.83 31.42,8.38 10.41,3.56 19.99,8.25 28.75,14.09 8.76,5.84 15.81,13.46 21.14,22.85 5.33,9.4 8,21.08 8,35.04 0,16.25 -4.64,31.17 -13.9,44.75 -9.27,13.59 -23.05,24.5 -41.33,32.76 -18.28,8.25 -41.25,12.37 -68.93,12.37z"/>
  <path id="_26" class="fil1" d="M2628.06 5215.44c-40.87,0 -72.74,-11.04 -95.59,-33.13 -22.85,-22.09 -34.28,-53.07 -34.28,-92.93l0 -146.63 89.88 0 0 143.97c0,20.31 3.69,34.72 11.05,43.22 7.36,8.51 17.26,12.76 29.7,12.76 12.7,0 22.67,-4.25 29.9,-12.76 7.24,-8.5 10.86,-22.91 10.86,-43.22l0 -143.97 88.35 0 0 146.63c0,39.86 -11.42,70.84 -34.27,92.93 -22.85,22.09 -54.72,33.13 -95.6,33.13z"/>
  <polygon id="_27" class="fil1" points="2799.07,5209.35 2799.07,4942.75 2872.95,4942.75 2979.59,5116.8 2940.74,5116.8 3044.34,4942.75 3118.22,4942.75 3118.98,5209.35 3037.1,5209.35 3036.34,5066.15 3049.29,5066.15 2978.45,5185.36 2938.84,5185.36 2864.96,5066.15 2880.95,5066.15 2880.95,5209.35 "/>
  <polygon id="_28" class="fil1" points="3162.4,5209.35 3162.4,4942.75 3252.28,4942.75 3252.28,5209.35 "/>
  <path id="_29" class="fil1" d="M3295.7 5209.35l0 -266.6 131.39 0c29.71,0 55.86,5.4 78.46,16.19 22.59,10.79 40.24,26.09 52.93,45.89 12.7,19.81 19.05,43.55 19.05,71.22 0,27.42 -6.35,51.1 -19.05,71.03 -12.69,19.93 -30.34,35.29 -52.93,46.08 -22.6,10.79 -48.75,16.19 -78.46,16.19l-131.39 0zm89.88 -70.08l37.7 0c12.95,0 24.12,-2.41 33.52,-7.23 9.39,-4.83 16.76,-12 22.09,-21.52 5.33,-9.52 8,-21.01 8,-34.47 0,-13.71 -2.67,-25.26 -8,-34.65 -5.33,-9.4 -12.7,-16.51 -22.09,-21.33 -9.4,-4.83 -20.57,-7.24 -33.52,-7.24l-37.7 0 0 126.44z"/>
  <path id="_30" class="fil1" d="M3750.05 5215.44c-21.58,0 -41.58,-3.42 -59.98,-10.28 -18.41,-6.85 -34.34,-16.57 -47.8,-29.13 -13.46,-12.57 -23.93,-27.36 -31.42,-44.37 -7.49,-17.01 -11.24,-35.55 -11.24,-55.61 0,-20.31 3.81,-38.84 11.43,-55.6 7.62,-16.76 18.09,-31.49 31.42,-44.18 13.33,-12.7 29.2,-22.47 47.61,-29.33 18.4,-6.85 38.4,-10.28 59.98,-10.28 21.84,0 41.89,3.43 60.17,10.28 18.29,6.86 34.09,16.63 47.42,29.33 13.33,12.69 23.8,27.42 31.42,44.18 7.62,16.76 11.43,35.29 11.43,55.6 0,20.06 -3.75,38.6 -11.24,55.61 -7.49,17.01 -17.96,31.8 -31.42,44.37 -13.46,12.56 -29.32,22.28 -47.61,29.13 -18.28,6.86 -38.33,10.28 -60.17,10.28zm-0.38 -72.74c8.63,0 16.57,-1.52 23.8,-4.57 7.24,-3.05 13.59,-7.43 19.05,-13.14 5.45,-5.71 9.71,-12.69 12.75,-20.95 3.05,-8.25 4.57,-17.58 4.57,-27.99 0,-10.41 -1.52,-19.74 -4.57,-27.99 -3.04,-8.25 -7.3,-15.23 -12.75,-20.95 -5.46,-5.71 -11.75,-10.09 -18.86,-13.14 -7.11,-3.04 -14.98,-4.57 -23.61,-4.57 -8.38,0 -16.19,1.53 -23.42,4.57 -7.24,3.05 -13.59,7.43 -19.04,13.14 -5.46,5.72 -9.72,12.7 -12.76,20.95 -3.05,8.25 -4.57,17.58 -4.57,27.99 0,10.41 1.52,19.74 4.57,27.99 3.04,8.26 7.3,15.24 12.76,20.95 5.45,5.71 11.74,10.09 18.85,13.14 7.11,3.05 14.85,4.57 23.23,4.57z"/>
  <path id="_31" class="fil1" d="M3933.24 5209.35l0 -266.6 128.34 0c24.89,0 46.41,4.07 64.56,12.19 18.15,8.13 32.18,19.74 42.08,34.85 9.91,15.11 14.86,32.94 14.86,53.51 0,20.57 -4.95,38.27 -14.86,53.13 -9.9,14.85 -23.93,26.21 -42.08,34.08 -18.15,7.87 -39.67,11.81 -64.56,11.81l-78.45 0 39.99 -36.94 0 103.97 -89.88 0zm159.57 0l-65.5 -97.12 95.21 0 66.27 97.12 -95.98 0zm-69.69 -94.07l-39.99 -40.75 72.74 0c12.44,0 21.65,-2.79 27.61,-8.38 5.97,-5.59 8.95,-13.2 8.95,-22.85 0,-9.65 -2.98,-17.27 -8.95,-22.85 -5.96,-5.59 -15.17,-8.38 -27.61,-8.38l-72.74 0 39.99 -40.75 0 143.96z"/>
  <rect class="fil0" x="9694.33" y="2572.99" width="50.8" height="2334.13"/>
 </g>
</svg>
