<?xml version="1.0" encoding="UTF-8"?>
<!DOCTYPE svg PUBLIC "-//W3C//DTD SVG 1.1//EN" "http://www.w3.org/Graphics/SVG/1.1/DTD/svg11.dtd">
<!-- Creator: CorelDRAW -->
<svg xmlns="http://www.w3.org/2000/svg" xml:space="preserve" width="211.667mm" height="211.667mm" version="1.1" style="shape-rendering:geometricPrecision; text-rendering:geometricPrecision; image-rendering:optimizeQuality; fill-rule:evenodd; clip-rule:evenodd"
viewBox="0 0 21166.66 21166.66"
 xmlns:xlink="http://www.w3.org/1999/xlink"
 xmlns:xodm="http://www.corel.com/coreldraw/odm/2003">
 <defs>
  <style type="text/css">
   <![CDATA[
    .fil0 {fill:white}
   ]]>
  </style>
 </defs>
 <g id="Capa_x0020_1">
  <metadata id="CorelCorpID_0Corel-Layer"/>
  <path class="fil0" d="M9195.51 10766.59l4.1 -3384.65c-2045.35,-27.83 -3416.12,147.29 -4811.21,1099.7 -4035.98,2755.19 -3751.59,8995.88 967.12,11200.52 2856.83,1334.73 6480.55,264.05 8169.43,-2566.88 965.79,-1618.84 912.52,-2885.39 912.52,-5019.33 0,-972.22 -51.88,-5366.53 19.02,-5939.34 834.73,644.1 644.63,715.33 1914.36,1326.77 726.33,349.78 1674.23,655.24 2569.79,726.8l654.71 -3259.82c-3723.43,-480.91 -4744.16,-3540.89 -5197.64,-4022.33l-3349.73 -8.75c48.24,3999.27 1.86,8113.97 1.72,12130.34 -0.06,1507.06 -194.47,2307.54 -1024.76,3032.95 -1866.12,1630.44 -4451.89,530 -4978.72,-1531.32 -322.28,-1260.98 270.74,-2483 895.76,-3001.14 1029.93,-853.82 1631.5,-761.06 3253.53,-783.52z"/>
 </g>
</svg>
